<svg xmlns="http://www.w3.org/2000/svg" xmlns:xlink="http://www.w3.org/1999/xlink" preserveAspectRatio="xMidYMid meet" width="1920" height="1080" viewBox="0 0 1920 1080" style="width:100%;height:100%"><defs><animate repeatCount="indefinite" dur="4.004004s" begin="0s" xlink:href="#_R_G_L_28_G_M" fill="freeze" attributeName="opacity" from="1" to="0" keyTimes="0;0.4333333;0.4333333;1" values="1;1;0;0" keySplines="0 0 0 0;0 0 0 0;0 0 0 0" calcMode="spline"/><animateMotion repeatCount="indefinite" dur="4.004004s" begin="0s" xlink:href="#_R_G_L_27_G" fill="freeze" keyTimes="0;0.1833333;1" path="M2489 629.02 C2489,629.02 961,629 961,629 C961,629 961,629 961,629 " keyPoints="0;1;1" keySplines="0.167 0.167 0.833 0.833;0 0 0 0" calcMode="spline"/><animateTransform repeatCount="indefinite" dur="4.004004s" begin="0s" xlink:href="#_R_G_L_27_G" fill="freeze" attributeName="transform" from="-519.5 -94" to="-519.5 -94" type="translate" additive="sum" keyTimes="0;1" values="-519.5 -94;-519.5 -94" keySplines="0 0 1 1" calcMode="spline"/><animate repeatCount="indefinite" dur="4.004004s" begin="0s" xlink:href="#_R_G_L_27_G_M" fill="freeze" attributeName="opacity" from="1" to="0" keyTimes="0;0.3;0.3;1" values="1;1;0;0" keySplines="0 0 0 0;0 0 0 0;0 0 0 0" calcMode="spline"/><animateMotion repeatCount="indefinite" dur="4.004004s" begin="0s" xlink:href="#_R_G_L_26_G" fill="freeze" keyTimes="0;0.1833333;1" path="M-570 445 C-570,445 958,445 958,445 C958,445 958,445 958,445 " keyPoints="0;1;1" keySplines="0.167 0.167 0.833 0.833;0 0 0 0" calcMode="spline"/><animateTransform repeatCount="indefinite" dur="4.004004s" begin="0s" xlink:href="#_R_G_L_26_G" fill="freeze" attributeName="transform" from="-516.5 -94" to="-516.5 -94" type="translate" additive="sum" keyTimes="0;1" values="-516.5 -94;-516.5 -94" keySplines="0 0 1 1" calcMode="spline"/><animate repeatCount="indefinite" dur="4.004004s" begin="0s" xlink:href="#_R_G_L_26_G_M" fill="freeze" attributeName="opacity" from="1" to="0" keyTimes="0;0.3;0.3;1" values="1;1;0;0" keySplines="0 0 0 0;0 0 0 0;0 0 0 0" calcMode="spline"/><animate repeatCount="indefinite" dur="4.004004s" begin="0s" xlink:href="#_R_G_L_25_G_M" fill="freeze" attributeName="opacity" from="0" to="0" keyTimes="0;0.3;0.3000008;0.3416667;0.3416667;1" values="0;0;1;1;0;0" keySplines="0 0 0 0;0 0 0 0;0 0 0 0;0 0 0 0;0 0 0 0" calcMode="spline"/><animate repeatCount="indefinite" dur="4.004004s" begin="0s" xlink:href="#_R_G_L_24_G_M" fill="freeze" attributeName="opacity" from="0" to="0" keyTimes="0;0.3;0.3000008;0.3416667;0.3416667;1" values="0;0;1;1;0;0" keySplines="0 0 0 0;0 0 0 0;0 0 0 0;0 0 0 0;0 0 0 0" calcMode="spline"/><animate repeatCount="indefinite" dur="4.004004s" begin="0s" xlink:href="#_R_G_L_23_G_M" fill="freeze" attributeName="opacity" from="0" to="0" keyTimes="0;0.3666667;0.3666675;0.4083333;0.4083333;1" values="0;0;1;1;0;0" keySplines="0 0 0 0;0 0 0 0;0 0 0 0;0 0 0 0;0 0 0 0" calcMode="spline"/><animate repeatCount="indefinite" dur="4.004004s" begin="0s" xlink:href="#_R_G_L_22_G_M" fill="freeze" attributeName="opacity" from="0" to="0" keyTimes="0;0.3666667;0.3666675;0.4083333;0.4083333;1" values="0;0;1;1;0;0" keySplines="0 0 0 0;0 0 0 0;0 0 0 0;0 0 0 0;0 0 0 0" calcMode="spline"/><animate repeatCount="indefinite" dur="4.004004s" begin="0s" xlink:href="#_R_G_L_21_G_M" fill="freeze" attributeName="opacity" from="0" to="1" keyTimes="0;0.4333333;0.4333342;1" values="0;0;1;1" keySplines="0 0 0 0;0 0 0 0;0 0 0 0" calcMode="spline"/><animate repeatCount="indefinite" dur="4.004004s" begin="0s" xlink:href="#_R_G_L_20_G_M" fill="freeze" attributeName="opacity" from="0" to="0" keyTimes="0;0.4333333;0.4333342;0.475;0.475;1" values="0;0;1;1;0;0" keySplines="0 0 0 0;0 0 0 0;0 0 0 0;0 0 0 0;0 0 0 0" calcMode="spline"/><animate repeatCount="indefinite" dur="4.004004s" begin="0s" xlink:href="#_R_G_L_19_G" fill="freeze" attributeName="opacity" from="0" to="1" keyTimes="0;0.8083333;0.9166667;1" values="0;0;1;1" keySplines="0.167 0.167 0.833 0.833;0.167 0.167 0.833 0.833;0 0 0 0" calcMode="spline"/><animate repeatCount="indefinite" dur="4.004004s" begin="0s" xlink:href="#_R_G_L_19_G_M" fill="freeze" attributeName="opacity" from="0" to="1" keyTimes="0;0.8083333;0.8083342;1" values="0;0;1;1" keySplines="0 0 0 0;0 0 0 0;0 0 0 0" calcMode="spline"/><animateMotion repeatCount="indefinite" dur="4.004004s" begin="0s" xlink:href="#_R_G_L_18_G" fill="freeze" keyTimes="0;0.6583333;0.7583333;1" path="M320.5 116.8 C320.5,116.8 320.5,116.8 320.5,116.8 C320.5,116.8 -2399.5,115.57 -2399.5,115.57 C-2399.5,115.57 -2399.5,115.57 -2399.5,115.57 " keyPoints="0;0;1;1" keySplines="0.333 0 0.667 1;0.333 0 0.667 1;0 0 0 0" calcMode="spline"/><animateTransform repeatCount="indefinite" dur="4.004004s" begin="0s" xlink:href="#_R_G_L_18_G" fill="freeze" attributeName="transform" from="0.48819 0.48819" to="0.48819 0.48819" type="scale" additive="sum" keyTimes="0;1" values="0.48819 0.48819;0.48819 0.48819" keySplines="0 0 1 1" calcMode="spline"/><animateTransform repeatCount="indefinite" dur="4.004004s" begin="0s" xlink:href="#_R_G_L_18_G" fill="freeze" attributeName="transform" from="-5.409 187.569" to="-5.409 187.569" type="translate" additive="sum" keyTimes="0;1" values="-5.409 187.569;-5.409 187.569" keySplines="0 0 1 1" calcMode="spline"/><animate repeatCount="indefinite" dur="4.004004s" begin="0s" xlink:href="#_R_G_L_18_G_M" fill="freeze" attributeName="opacity" from="0" to="0" keyTimes="0;0.5;0.5000008;0.8083333;0.8083333;1" values="0;0;1;1;0;0" keySplines="0 0 0 0;0 0 0 0;0 0 0 0;0 0 0 0;0 0 0 0" calcMode="spline"/><animateMotion repeatCount="indefinite" dur="4.004004s" begin="0s" xlink:href="#_R_G_L_17_G" fill="freeze" keyTimes="0;0.6583333;0.7583333;1" path="M1013 116.8 C1013,116.8 1013,116.8 1013,116.8 C1013,116.8 -1707,115.57 -1707,115.57 C-1707,115.57 -1707,115.57 -1707,115.57 " keyPoints="0;0;1;1" keySplines="0.333 0 0.667 1;0.333 0 0.667 1;0 0 0 0" calcMode="spline"/><animateTransform repeatCount="indefinite" dur="4.004004s" begin="0s" xlink:href="#_R_G_L_17_G" fill="freeze" attributeName="transform" from="0.48819 0.48819" to="0.48819 0.48819" type="scale" additive="sum" keyTimes="0;1" values="0.48819 0.48819;0.48819 0.48819" keySplines="0 0 1 1" calcMode="spline"/><animateTransform repeatCount="indefinite" dur="4.004004s" begin="0s" xlink:href="#_R_G_L_17_G" fill="freeze" attributeName="transform" from="-5.409 187.569" to="-5.409 187.569" type="translate" additive="sum" keyTimes="0;1" values="-5.409 187.569;-5.409 187.569" keySplines="0 0 1 1" calcMode="spline"/><animate repeatCount="indefinite" dur="4.004004s" begin="0s" xlink:href="#_R_G_L_17_G_M" fill="freeze" attributeName="opacity" from="0" to="0" keyTimes="0;0.5;0.5000008;0.8083333;0.8083333;1" values="0;0;1;1;0;0" keySplines="0 0 0 0;0 0 0 0;0 0 0 0;0 0 0 0;0 0 0 0" calcMode="spline"/><animateMotion repeatCount="indefinite" dur="4.004004s" begin="0s" xlink:href="#_R_G_L_16_G" fill="freeze" keyTimes="0;0.6583333;0.7583333;1" path="M-372 116.8 C-372,116.8 -372,116.8 -372,116.8 C-372,116.8 -3092,115.57 -3092,115.57 C-3092,115.57 -3092,115.57 -3092,115.57 " keyPoints="0;0;1;1" keySplines="0.333 0 0.667 1;0.333 0 0.667 1;0 0 0 0" calcMode="spline"/><animateTransform repeatCount="indefinite" dur="4.004004s" begin="0s" xlink:href="#_R_G_L_16_G" fill="freeze" attributeName="transform" from="0.48819 0.48819" to="0.48819 0.48819" type="scale" additive="sum" keyTimes="0;1" values="0.48819 0.48819;0.48819 0.48819" keySplines="0 0 1 1" calcMode="spline"/><animateTransform repeatCount="indefinite" dur="4.004004s" begin="0s" xlink:href="#_R_G_L_16_G" fill="freeze" attributeName="transform" from="-5.409 187.569" to="-5.409 187.569" type="translate" additive="sum" keyTimes="0;1" values="-5.409 187.569;-5.409 187.569" keySplines="0 0 1 1" calcMode="spline"/><animate repeatCount="indefinite" dur="4.004004s" begin="0s" xlink:href="#_R_G_L_16_G_M" fill="freeze" attributeName="opacity" from="0" to="0" keyTimes="0;0.5;0.5000008;0.8083333;0.8083333;1" values="0;0;1;1;0;0" keySplines="0 0 0 0;0 0 0 0;0 0 0 0;0 0 0 0;0 0 0 0" calcMode="spline"/><animateMotion repeatCount="indefinite" dur="4.004004s" begin="0s" xlink:href="#_R_G_L_15_G" fill="freeze" keyTimes="0;0.6583333;0.7583333;1" path="M1705.5 116.8 C1705.5,116.8 1705.5,116.8 1705.5,116.8 C1705.5,116.8 -1014.5,115.57 -1014.5,115.57 C-1014.5,115.57 -1014.5,115.57 -1014.5,115.57 " keyPoints="0;0;1;1" keySplines="0.333 0 0.667 1;0.333 0 0.667 1;0 0 0 0" calcMode="spline"/><animateTransform repeatCount="indefinite" dur="4.004004s" begin="0s" xlink:href="#_R_G_L_15_G" fill="freeze" attributeName="transform" from="0.48819 0.48819" to="0.48819 0.48819" type="scale" additive="sum" keyTimes="0;1" values="0.48819 0.48819;0.48819 0.48819" keySplines="0 0 1 1" calcMode="spline"/><animateTransform repeatCount="indefinite" dur="4.004004s" begin="0s" xlink:href="#_R_G_L_15_G" fill="freeze" attributeName="transform" from="-5.409 187.569" to="-5.409 187.569" type="translate" additive="sum" keyTimes="0;1" values="-5.409 187.569;-5.409 187.569" keySplines="0 0 1 1" calcMode="spline"/><animate repeatCount="indefinite" dur="4.004004s" begin="0s" xlink:href="#_R_G_L_15_G_M" fill="freeze" attributeName="opacity" from="0" to="0" keyTimes="0;0.5;0.5000008;0.8083333;0.8083333;1" values="0;0;1;1;0;0" keySplines="0 0 0 0;0 0 0 0;0 0 0 0;0 0 0 0;0 0 0 0" calcMode="spline"/><animateMotion repeatCount="indefinite" dur="4.004004s" begin="0s" xlink:href="#_R_G_L_14_G" fill="freeze" keyTimes="0;0.6583333;0.7583333;1" path="M2398 127.57 C2398,127.57 2398,127.57 2398,127.57 C2398,127.57 -322,126.34 -322,126.34 C-322,126.34 -322,126.34 -322,126.34 " keyPoints="0;0;1;1" keySplines="0.333 0 0.667 1;0.333 0 0.667 1;0 0 0 0" calcMode="spline"/><animateTransform repeatCount="indefinite" dur="4.004004s" begin="0s" xlink:href="#_R_G_L_14_G" fill="freeze" attributeName="transform" from="0.48819 0.48819" to="0.48819 0.48819" type="scale" additive="sum" keyTimes="0;1" values="0.48819 0.48819;0.48819 0.48819" keySplines="0 0 1 1" calcMode="spline"/><animateTransform repeatCount="indefinite" dur="4.004004s" begin="0s" xlink:href="#_R_G_L_14_G" fill="freeze" attributeName="transform" from="-5.409 187.569" to="-5.409 187.569" type="translate" additive="sum" keyTimes="0;1" values="-5.409 187.569;-5.409 187.569" keySplines="0 0 1 1" calcMode="spline"/><animate repeatCount="indefinite" dur="4.004004s" begin="0s" xlink:href="#_R_G_L_14_G_M" fill="freeze" attributeName="opacity" from="0" to="0" keyTimes="0;0.5;0.5000008;0.8083333;0.8083333;1" values="0;0;1;1;0;0" keySplines="0 0 0 0;0 0 0 0;0 0 0 0;0 0 0 0;0 0 0 0" calcMode="spline"/><animateMotion repeatCount="indefinite" dur="4.004004s" begin="0s" xlink:href="#_R_G_L_13_G" fill="freeze" keyTimes="0;0.6583333;0.7583333;1" path="M672.5 397.57 C672.5,397.57 672.5,397.57 672.5,397.57 C672.5,397.57 2952.5,397.57 2952.5,397.57 C2952.5,397.57 2952.5,397.57 2952.5,397.57 " keyPoints="0;0;1;1" keySplines="0.333 0 0.667 1;0.333 0 0.667 1;0 0 0 0" calcMode="spline"/><animateTransform repeatCount="indefinite" dur="4.004004s" begin="0s" xlink:href="#_R_G_L_13_G" fill="freeze" attributeName="transform" from="0.48819 0.48819" to="0.48819 0.48819" type="scale" additive="sum" keyTimes="0;1" values="0.48819 0.48819;0.48819 0.48819" keySplines="0 0 1 1" calcMode="spline"/><animateTransform repeatCount="indefinite" dur="4.004004s" begin="0s" xlink:href="#_R_G_L_13_G" fill="freeze" attributeName="transform" from="-5.409 187.569" to="-5.409 187.569" type="translate" additive="sum" keyTimes="0;1" values="-5.409 187.569;-5.409 187.569" keySplines="0 0 1 1" calcMode="spline"/><animate repeatCount="indefinite" dur="4.004004s" begin="0s" xlink:href="#_R_G_L_13_G_M" fill="freeze" attributeName="opacity" from="0" to="0" keyTimes="0;0.5333333;0.5333342;0.8083333;0.8083333;1" values="0;0;1;1;0;0" keySplines="0 0 0 0;0 0 0 0;0 0 0 0;0 0 0 0;0 0 0 0" calcMode="spline"/><animateMotion repeatCount="indefinite" dur="4.004004s" begin="0s" xlink:href="#_R_G_L_12_G" fill="freeze" keyTimes="0;0.6583333;0.7583333;1" path="M1365 397.57 C1365,397.57 1365,397.57 1365,397.57 C1365,397.57 3645,397.57 3645,397.57 C3645,397.57 3645,397.57 3645,397.57 " keyPoints="0;0;1;1" keySplines="0.333 0 0.667 1;0.333 0 0.667 1;0 0 0 0" calcMode="spline"/><animateTransform repeatCount="indefinite" dur="4.004004s" begin="0s" xlink:href="#_R_G_L_12_G" fill="freeze" attributeName="transform" from="0.48819 0.48819" to="0.48819 0.48819" type="scale" additive="sum" keyTimes="0;1" values="0.48819 0.48819;0.48819 0.48819" keySplines="0 0 1 1" calcMode="spline"/><animateTransform repeatCount="indefinite" dur="4.004004s" begin="0s" xlink:href="#_R_G_L_12_G" fill="freeze" attributeName="transform" from="-5.409 187.569" to="-5.409 187.569" type="translate" additive="sum" keyTimes="0;1" values="-5.409 187.569;-5.409 187.569" keySplines="0 0 1 1" calcMode="spline"/><animate repeatCount="indefinite" dur="4.004004s" begin="0s" xlink:href="#_R_G_L_12_G_M" fill="freeze" attributeName="opacity" from="0" to="0" keyTimes="0;0.5333333;0.5333342;0.8083333;0.8083333;1" values="0;0;1;1;0;0" keySplines="0 0 0 0;0 0 0 0;0 0 0 0;0 0 0 0;0 0 0 0" calcMode="spline"/><animateMotion repeatCount="indefinite" dur="4.004004s" begin="0s" xlink:href="#_R_G_L_11_G" fill="freeze" keyTimes="0;0.6583333;0.7583333;1" path="M-20 397.57 C-20,397.57 -20,397.57 -20,397.57 C-20,397.57 2260,397.57 2260,397.57 C2260,397.57 2260,397.57 2260,397.57 " keyPoints="0;0;1;1" keySplines="0.333 0 0.667 1;0.333 0 0.667 1;0 0 0 0" calcMode="spline"/><animateTransform repeatCount="indefinite" dur="4.004004s" begin="0s" xlink:href="#_R_G_L_11_G" fill="freeze" attributeName="transform" from="0.48819 0.48819" to="0.48819 0.48819" type="scale" additive="sum" keyTimes="0;1" values="0.48819 0.48819;0.48819 0.48819" keySplines="0 0 1 1" calcMode="spline"/><animateTransform repeatCount="indefinite" dur="4.004004s" begin="0s" xlink:href="#_R_G_L_11_G" fill="freeze" attributeName="transform" from="-5.409 187.569" to="-5.409 187.569" type="translate" additive="sum" keyTimes="0;1" values="-5.409 187.569;-5.409 187.569" keySplines="0 0 1 1" calcMode="spline"/><animate repeatCount="indefinite" dur="4.004004s" begin="0s" xlink:href="#_R_G_L_11_G_M" fill="freeze" attributeName="opacity" from="0" to="0" keyTimes="0;0.5333333;0.5333342;0.8083333;0.8083333;1" values="0;0;1;1;0;0" keySplines="0 0 0 0;0 0 0 0;0 0 0 0;0 0 0 0;0 0 0 0" calcMode="spline"/><animateMotion repeatCount="indefinite" dur="4.004004s" begin="0s" xlink:href="#_R_G_L_10_G" fill="freeze" keyTimes="0;0.6583333;0.7583333;1" path="M2057.5 397.57 C2057.5,397.57 2057.5,397.57 2057.5,397.57 C2057.5,397.57 4337.5,397.57 4337.5,397.57 C4337.5,397.57 4337.5,397.57 4337.5,397.57 " keyPoints="0;0;1;1" keySplines="0.333 0 0.667 1;0.333 0 0.667 1;0 0 0 0" calcMode="spline"/><animateTransform repeatCount="indefinite" dur="4.004004s" begin="0s" xlink:href="#_R_G_L_10_G" fill="freeze" attributeName="transform" from="0.48819 0.48819" to="0.48819 0.48819" type="scale" additive="sum" keyTimes="0;1" values="0.48819 0.48819;0.48819 0.48819" keySplines="0 0 1 1" calcMode="spline"/><animateTransform repeatCount="indefinite" dur="4.004004s" begin="0s" xlink:href="#_R_G_L_10_G" fill="freeze" attributeName="transform" from="-5.409 187.569" to="-5.409 187.569" type="translate" additive="sum" keyTimes="0;1" values="-5.409 187.569;-5.409 187.569" keySplines="0 0 1 1" calcMode="spline"/><animate repeatCount="indefinite" dur="4.004004s" begin="0s" xlink:href="#_R_G_L_10_G_M" fill="freeze" attributeName="opacity" from="0" to="0" keyTimes="0;0.5333333;0.5333342;0.8083333;0.8083333;1" values="0;0;1;1;0;0" keySplines="0 0 0 0;0 0 0 0;0 0 0 0;0 0 0 0;0 0 0 0" calcMode="spline"/><animate repeatCount="indefinite" dur="4.004004s" begin="0s" xlink:href="#_R_G_L_9_G_M" fill="freeze" attributeName="opacity" from="0" to="0" keyTimes="0;0.5333333;0.5333342;0.8083333;0.8083333;1" values="0;0;1;1;0;0" keySplines="0 0 0 0;0 0 0 0;0 0 0 0;0 0 0 0;0 0 0 0" calcMode="spline"/><animateMotion repeatCount="indefinite" dur="4.004004s" begin="0s" xlink:href="#_R_G_L_8_G" fill="freeze" keyTimes="0;0.6583333;0.7583333;1" path="M320.5 679.8 C320.5,679.8 320.5,679.8 320.5,679.8 C320.5,679.8 -2399.5,667.8 -2399.5,667.8 C-2399.5,667.8 -2399.5,667.8 -2399.5,667.8 " keyPoints="0;0;1;1" keySplines="0.333 0 0.667 1;0.333 0 0.667 1;0 0 0 0" calcMode="spline"/><animateTransform repeatCount="indefinite" dur="4.004004s" begin="0s" xlink:href="#_R_G_L_8_G" fill="freeze" attributeName="transform" from="0.48819 0.48819" to="0.48819 0.48819" type="scale" additive="sum" keyTimes="0;1" values="0.48819 0.48819;0.48819 0.48819" keySplines="0 0 1 1" calcMode="spline"/><animateTransform repeatCount="indefinite" dur="4.004004s" begin="0s" xlink:href="#_R_G_L_8_G" fill="freeze" attributeName="transform" from="-5.409 187.569" to="-5.409 187.569" type="translate" additive="sum" keyTimes="0;1" values="-5.409 187.569;-5.409 187.569" keySplines="0 0 1 1" calcMode="spline"/><animate repeatCount="indefinite" dur="4.004004s" begin="0s" xlink:href="#_R_G_L_8_G_M" fill="freeze" attributeName="opacity" from="0" to="0" keyTimes="0;0.5666667;0.5666675;0.8083333;0.8083333;1" values="0;0;1;1;0;0" keySplines="0 0 0 0;0 0 0 0;0 0 0 0;0 0 0 0;0 0 0 0" calcMode="spline"/><animateMotion repeatCount="indefinite" dur="4.004004s" begin="0s" xlink:href="#_R_G_L_7_G" fill="freeze" keyTimes="0;0.6583333;0.7583333;1" path="M1013 679.8 C1013,679.8 1013,679.8 1013,679.8 C1013,679.8 -1707,667.8 -1707,667.8 C-1707,667.8 -1707,667.8 -1707,667.8 " keyPoints="0;0;1;1" keySplines="0.333 0 0.667 1;0.333 0 0.667 1;0 0 0 0" calcMode="spline"/><animateTransform repeatCount="indefinite" dur="4.004004s" begin="0s" xlink:href="#_R_G_L_7_G" fill="freeze" attributeName="transform" from="0.48819 0.48819" to="0.48819 0.48819" type="scale" additive="sum" keyTimes="0;1" values="0.48819 0.48819;0.48819 0.48819" keySplines="0 0 1 1" calcMode="spline"/><animateTransform repeatCount="indefinite" dur="4.004004s" begin="0s" xlink:href="#_R_G_L_7_G" fill="freeze" attributeName="transform" from="-5.409 187.569" to="-5.409 187.569" type="translate" additive="sum" keyTimes="0;1" values="-5.409 187.569;-5.409 187.569" keySplines="0 0 1 1" calcMode="spline"/><animate repeatCount="indefinite" dur="4.004004s" begin="0s" xlink:href="#_R_G_L_7_G_M" fill="freeze" attributeName="opacity" from="0" to="0" keyTimes="0;0.5666667;0.5666675;0.8083333;0.8083333;1" values="0;0;1;1;0;0" keySplines="0 0 0 0;0 0 0 0;0 0 0 0;0 0 0 0;0 0 0 0" calcMode="spline"/><animateMotion repeatCount="indefinite" dur="4.004004s" begin="0s" xlink:href="#_R_G_L_6_G" fill="freeze" keyTimes="0;0.6583333;0.7583333;1" path="M-372 679.8 C-372,679.8 -372,679.8 -372,679.8 C-372,679.8 -3092,667.8 -3092,667.8 C-3092,667.8 -3092,667.8 -3092,667.8 " keyPoints="0;0;1;1" keySplines="0.333 0 0.667 1;0.333 0 0.667 1;0 0 0 0" calcMode="spline"/><animateTransform repeatCount="indefinite" dur="4.004004s" begin="0s" xlink:href="#_R_G_L_6_G" fill="freeze" attributeName="transform" from="0.48819 0.48819" to="0.48819 0.48819" type="scale" additive="sum" keyTimes="0;1" values="0.48819 0.48819;0.48819 0.48819" keySplines="0 0 1 1" calcMode="spline"/><animateTransform repeatCount="indefinite" dur="4.004004s" begin="0s" xlink:href="#_R_G_L_6_G" fill="freeze" attributeName="transform" from="-5.409 187.569" to="-5.409 187.569" type="translate" additive="sum" keyTimes="0;1" values="-5.409 187.569;-5.409 187.569" keySplines="0 0 1 1" calcMode="spline"/><animate repeatCount="indefinite" dur="4.004004s" begin="0s" xlink:href="#_R_G_L_6_G_M" fill="freeze" attributeName="opacity" from="0" to="0" keyTimes="0;0.5666667;0.5666675;0.8083333;0.8083333;1" values="0;0;1;1;0;0" keySplines="0 0 0 0;0 0 0 0;0 0 0 0;0 0 0 0;0 0 0 0" calcMode="spline"/><animateMotion repeatCount="indefinite" dur="4.004004s" begin="0s" xlink:href="#_R_G_L_5_G" fill="freeze" keyTimes="0;0.6583333;0.7583333;1" path="M1705.5 679.8 C1705.5,679.8 1705.5,679.8 1705.5,679.8 C1705.5,679.8 -1014.5,667.8 -1014.5,667.8 C-1014.5,667.8 -1014.5,667.8 -1014.5,667.8 " keyPoints="0;0;1;1" keySplines="0.333 0 0.667 1;0.333 0 0.667 1;0 0 0 0" calcMode="spline"/><animateTransform repeatCount="indefinite" dur="4.004004s" begin="0s" xlink:href="#_R_G_L_5_G" fill="freeze" attributeName="transform" from="0.48819 0.48819" to="0.48819 0.48819" type="scale" additive="sum" keyTimes="0;1" values="0.48819 0.48819;0.48819 0.48819" keySplines="0 0 1 1" calcMode="spline"/><animateTransform repeatCount="indefinite" dur="4.004004s" begin="0s" xlink:href="#_R_G_L_5_G" fill="freeze" attributeName="transform" from="-5.409 187.569" to="-5.409 187.569" type="translate" additive="sum" keyTimes="0;1" values="-5.409 187.569;-5.409 187.569" keySplines="0 0 1 1" calcMode="spline"/><animate repeatCount="indefinite" dur="4.004004s" begin="0s" xlink:href="#_R_G_L_5_G_M" fill="freeze" attributeName="opacity" from="0" to="0" keyTimes="0;0.5666667;0.5666675;0.8083333;0.8083333;1" values="0;0;1;1;0;0" keySplines="0 0 0 0;0 0 0 0;0 0 0 0;0 0 0 0;0 0 0 0" calcMode="spline"/><animateMotion repeatCount="indefinite" dur="4.004004s" begin="0s" xlink:href="#_R_G_L_4_G" fill="freeze" keyTimes="0;0.6583333;0.7583333;1" path="M2398 690.57 C2398,690.57 2398,690.57 2398,690.57 C2398,690.57 -322,678.57 -322,678.57 C-322,678.57 -322,678.57 -322,678.57 " keyPoints="0;0;1;1" keySplines="0.333 0 0.667 1;0.333 0 0.667 1;0 0 0 0" calcMode="spline"/><animateTransform repeatCount="indefinite" dur="4.004004s" begin="0s" xlink:href="#_R_G_L_4_G" fill="freeze" attributeName="transform" from="0.48819 0.48819" to="0.48819 0.48819" type="scale" additive="sum" keyTimes="0;1" values="0.48819 0.48819;0.48819 0.48819" keySplines="0 0 1 1" calcMode="spline"/><animateTransform repeatCount="indefinite" dur="4.004004s" begin="0s" xlink:href="#_R_G_L_4_G" fill="freeze" attributeName="transform" from="-5.409 187.569" to="-5.409 187.569" type="translate" additive="sum" keyTimes="0;1" values="-5.409 187.569;-5.409 187.569" keySplines="0 0 1 1" calcMode="spline"/><animate repeatCount="indefinite" dur="4.004004s" begin="0s" xlink:href="#_R_G_L_4_G_M" fill="freeze" attributeName="opacity" from="0" to="0" keyTimes="0;0.5666667;0.5666675;0.8083333;0.8083333;1" values="0;0;1;1;0;0" keySplines="0 0 0 0;0 0 0 0;0 0 0 0;0 0 0 0;0 0 0 0" calcMode="spline"/><animateMotion repeatCount="indefinite" dur="4.004004s" begin="0s" xlink:href="#_R_G_L_3_G" fill="freeze" keyTimes="0;0.6583333;0.7583333;1" path="M672.5 960.57 C672.5,960.57 672.5,960.57 672.5,960.57 C672.5,960.57 2952.5,960.57 2952.5,960.57 C2952.5,960.57 2952.5,960.57 2952.5,960.57 " keyPoints="0;0;1;1" keySplines="0.333 0 0.667 1;0.333 0 0.667 1;0 0 0 0" calcMode="spline"/><animateTransform repeatCount="indefinite" dur="4.004004s" begin="0s" xlink:href="#_R_G_L_3_G" fill="freeze" attributeName="transform" from="0.48819 0.48819" to="0.48819 0.48819" type="scale" additive="sum" keyTimes="0;1" values="0.48819 0.48819;0.48819 0.48819" keySplines="0 0 1 1" calcMode="spline"/><animateTransform repeatCount="indefinite" dur="4.004004s" begin="0s" xlink:href="#_R_G_L_3_G" fill="freeze" attributeName="transform" from="-5.409 187.569" to="-5.409 187.569" type="translate" additive="sum" keyTimes="0;1" values="-5.409 187.569;-5.409 187.569" keySplines="0 0 1 1" calcMode="spline"/><animate repeatCount="indefinite" dur="4.004004s" begin="0s" xlink:href="#_R_G_L_3_G_M" fill="freeze" attributeName="opacity" from="0" to="0" keyTimes="0;0.6;0.6000008;0.8083333;0.8083333;1" values="0;0;1;1;0;0" keySplines="0 0 0 0;0 0 0 0;0 0 0 0;0 0 0 0;0 0 0 0" calcMode="spline"/><animateMotion repeatCount="indefinite" dur="4.004004s" begin="0s" xlink:href="#_R_G_L_2_G" fill="freeze" keyTimes="0;0.6583333;0.7583333;1" path="M1365 960.57 C1365,960.57 1365,960.57 1365,960.57 C1365,960.57 3645,960.57 3645,960.57 C3645,960.57 3645,960.57 3645,960.57 " keyPoints="0;0;1;1" keySplines="0.333 0 0.667 1;0.333 0 0.667 1;0 0 0 0" calcMode="spline"/><animateTransform repeatCount="indefinite" dur="4.004004s" begin="0s" xlink:href="#_R_G_L_2_G" fill="freeze" attributeName="transform" from="0.48819 0.48819" to="0.48819 0.48819" type="scale" additive="sum" keyTimes="0;1" values="0.48819 0.48819;0.48819 0.48819" keySplines="0 0 1 1" calcMode="spline"/><animateTransform repeatCount="indefinite" dur="4.004004s" begin="0s" xlink:href="#_R_G_L_2_G" fill="freeze" attributeName="transform" from="-5.409 187.569" to="-5.409 187.569" type="translate" additive="sum" keyTimes="0;1" values="-5.409 187.569;-5.409 187.569" keySplines="0 0 1 1" calcMode="spline"/><animate repeatCount="indefinite" dur="4.004004s" begin="0s" xlink:href="#_R_G_L_2_G_M" fill="freeze" attributeName="opacity" from="0" to="0" keyTimes="0;0.6;0.6000008;0.8083333;0.8083333;1" values="0;0;1;1;0;0" keySplines="0 0 0 0;0 0 0 0;0 0 0 0;0 0 0 0;0 0 0 0" calcMode="spline"/><animateMotion repeatCount="indefinite" dur="4.004004s" begin="0s" xlink:href="#_R_G_L_1_G" fill="freeze" keyTimes="0;0.6583333;0.7583333;1" path="M-20 960.57 C-20,960.57 -20,960.57 -20,960.57 C-20,960.57 2260,960.57 2260,960.57 C2260,960.57 2260,960.57 2260,960.57 " keyPoints="0;0;1;1" keySplines="0.333 0 0.667 1;0.333 0 0.667 1;0 0 0 0" calcMode="spline"/><animateTransform repeatCount="indefinite" dur="4.004004s" begin="0s" xlink:href="#_R_G_L_1_G" fill="freeze" attributeName="transform" from="0.48819 0.48819" to="0.48819 0.48819" type="scale" additive="sum" keyTimes="0;1" values="0.48819 0.48819;0.48819 0.48819" keySplines="0 0 1 1" calcMode="spline"/><animateTransform repeatCount="indefinite" dur="4.004004s" begin="0s" xlink:href="#_R_G_L_1_G" fill="freeze" attributeName="transform" from="-5.409 187.569" to="-5.409 187.569" type="translate" additive="sum" keyTimes="0;1" values="-5.409 187.569;-5.409 187.569" keySplines="0 0 1 1" calcMode="spline"/><animate repeatCount="indefinite" dur="4.004004s" begin="0s" xlink:href="#_R_G_L_1_G_M" fill="freeze" attributeName="opacity" from="0" to="0" keyTimes="0;0.6;0.6000008;0.8083333;0.8083333;1" values="0;0;1;1;0;0" keySplines="0 0 0 0;0 0 0 0;0 0 0 0;0 0 0 0;0 0 0 0" calcMode="spline"/><animateMotion repeatCount="indefinite" dur="4.004004s" begin="0s" xlink:href="#_R_G_L_0_G" fill="freeze" keyTimes="0;0.6583333;0.7583333;1" path="M2057.5 960.57 C2057.5,960.57 2057.5,960.57 2057.5,960.57 C2057.5,960.57 4337.5,960.57 4337.5,960.57 C4337.5,960.57 4337.5,960.57 4337.5,960.57 " keyPoints="0;0;1;1" keySplines="0.333 0 0.667 1;0.333 0 0.667 1;0 0 0 0" calcMode="spline"/><animateTransform repeatCount="indefinite" dur="4.004004s" begin="0s" xlink:href="#_R_G_L_0_G" fill="freeze" attributeName="transform" from="0.48819 0.48819" to="0.48819 0.48819" type="scale" additive="sum" keyTimes="0;1" values="0.48819 0.48819;0.48819 0.48819" keySplines="0 0 1 1" calcMode="spline"/><animateTransform repeatCount="indefinite" dur="4.004004s" begin="0s" xlink:href="#_R_G_L_0_G" fill="freeze" attributeName="transform" from="-5.409 187.569" to="-5.409 187.569" type="translate" additive="sum" keyTimes="0;1" values="-5.409 187.569;-5.409 187.569" keySplines="0 0 1 1" calcMode="spline"/><animate repeatCount="indefinite" dur="4.004004s" begin="0s" xlink:href="#_R_G_L_0_G_M" fill="freeze" attributeName="opacity" from="0" to="0" keyTimes="0;0.6;0.6000008;0.8083333;0.8083333;1" values="0;0;1;1;0;0" keySplines="0 0 0 0;0 0 0 0;0 0 0 0;0 0 0 0;0 0 0 0" calcMode="spline"/><animate attributeType="XML" attributeName="opacity" dur="4s" from="0" to="1" xlink:href="#time_group"/></defs><g id="_R_G"><g id="_R_G_L_28_G_M"><g id="_R_G_L_28_G" transform=" translate(955.992, 537.273) translate(0, 0)"><path id="_R_G_L_28_G_D_0_P_0" fill="#00125e" fill-opacity="1" fill-rule="nonzero" d=" M1024.02 -576 C1024.02,-576 1024.02,573.45 1024.02,573.45 C1024.02,573.45 -1016,573.45 -1016,573.45 C-1016,573.45 -1016,-576 -1016,-576 C-1016,-576 1024.02,-576 1024.02,-576z "/></g></g><g id="_R_G_L_27_G_M"><g id="_R_G_L_27_G"><path id="_R_G_L_27_G_D_0_P_0" fill="#ffffff" fill-opacity="1" fill-rule="nonzero" d=" M1.01 187.75 C1.01,187.75 235.51,187.75 235.51,187.75 C235.51,187.75 235.51,112.75 235.51,112.75 C235.51,112.75 90.51,112.75 90.51,112.75 C90.51,112.75 90.51,0.98 90.51,0.98 C90.51,0.98 1.01,0.98 1.01,0.98 C1.01,0.98 1.01,187.75 1.01,187.75z "/><path id="_R_G_L_27_G_D_1_P_0" fill="#ffffff" fill-opacity="1" fill-rule="nonzero" d=" M300.01 187.75 C300.01,187.75 389.51,187.75 389.51,187.75 C389.51,187.75 389.51,0.98 389.51,0.98 C389.51,0.98 300.01,0.98 300.01,0.98 C300.01,0.98 300.01,187.75 300.01,187.75z "/><path id="_R_G_L_27_G_D_2_P_0" fill="#ffffff" fill-opacity="1" fill-rule="nonzero" d=" M596 104.25 C596,104.25 593.5,104.25 593.5,104.25 C584.39,68.66 577.53,35.32 568.68,0.98 C568.68,0.98 483.1,0.98 483.1,0.98 C483.1,0.98 539,187.75 539,187.75 C539,187.75 646.5,187.75 646.5,187.75 C646.5,187.75 702.41,0.98 702.41,0.98 C702.41,0.98 620.99,0.98 620.99,0.98 C612.47,35.32 605.55,68.66 596,104.25z "/><path id="_R_G_L_27_G_D_3_P_0" fill="#ffffff" fill-opacity="1" fill-rule="nonzero" d=" M886 112.75 C886,112.75 886,33.75 886,33.75 C886,33.75 1010.5,33.75 1010.5,33.75 C1010.5,33.75 1010.5,0.98 1010.5,0.98 C1010.5,0.98 796.5,0.98 796.5,0.98 C796.5,0.98 796.5,187.75 796.5,187.75 C796.5,187.75 1038,187.75 1038,187.75 C1038,187.75 1038,112.75 1038,112.75 C1038,112.75 886,112.75 886,112.75z "/></g></g><g id="_R_G_L_26_G_M"><g id="_R_G_L_26_G"><path id="_R_G_L_26_G_D_0_P_0" fill="#ffffff" fill-opacity="1" fill-rule="nonzero" d=" M1.01 186.98 C1.01,186.98 90.51,186.98 90.51,186.98 C90.51,186.98 90.51,1.25 90.51,1.25 C90.51,1.25 1.01,1.25 1.01,1.25 C1.01,1.25 1.01,186.98 1.01,186.98z "/><path id="_R_G_L_26_G_D_1_P_0" fill="#ffffff" fill-opacity="1" fill-rule="nonzero" d=" M300.01 186.98 C300.01,186.98 389.51,186.98 389.51,186.98 C389.51,186.98 389.51,1.25 389.51,1.25 C389.51,1.25 300.01,1.25 300.01,1.25 C300.01,1.25 300.01,186.98 300.01,186.98z "/><path id="_R_G_L_26_G_D_2_P_0" fill="#ffffff" fill-opacity="1" fill-rule="nonzero" d=" M564.5 171.25 C564.5,171.25 522,1.25 522,1.25 C522,1.25 427.5,1.25 427.5,1.25 C427.5,1.25 483.1,186.98 483.1,186.98 C483.1,186.98 568.68,186.98 568.68,186.98 C567.34,181.76 565.95,176.52 564.5,171.25z "/><path id="_R_G_L_26_G_D_3_P_0" fill="#ffffff" fill-opacity="1" fill-rule="nonzero" d=" M667 1.25 C667,1.25 625,171.25 625,171.25 C623.62,176.52 622.29,181.76 620.99,186.98 C620.99,186.98 702.41,186.98 702.41,186.98 C702.41,186.98 758,1.25 758,1.25 C758,1.25 667,1.25 667,1.25z "/><path id="_R_G_L_26_G_D_4_P_0" fill="#ffffff" fill-opacity="1" fill-rule="nonzero" d=" M1010.5 144.75 C1010.5,144.75 886,144.75 886,144.75 C886,144.75 886,75.75 886,75.75 C886,75.75 1032.5,75.75 1032.5,75.75 C1032.5,75.75 1032.5,1.25 1032.5,1.25 C1032.5,1.25 796.5,1.25 796.5,1.25 C796.5,1.25 796.5,186.98 796.5,186.98 C796.5,186.98 1010.5,186.98 1010.5,186.98 C1010.5,186.98 1010.5,144.75 1010.5,144.75z "/></g></g><g id="_R_G_L_25_G_M"><g id="_R_G_L_25_G" transform=" translate(960, 540) translate(0, 0)"><path id="_R_G_L_25_G_D_0_P_0" fill="#ffffff" fill-opacity="1" fill-rule="nonzero" d=" M1019.84 -608 C1019.84,-608 1019.84,580.09 1019.84,580.09 C1019.84,580.09 -1028,580.09 -1028,580.09 C-1028,580.09 -1028,-608 -1028,-608 C-1028,-608 1019.84,-608 1019.84,-608z "/></g></g><g id="_R_G_L_24_G_M"><g id="_R_G_L_24_G" transform=" translate(960, 536) translate(-5.409, 187.569)"><path id="_R_G_L_24_G_D_0_P_0" fill="#00125e" fill-opacity="1" fill-rule="nonzero" d=" M283.55 0 C283.55,0 526.76,0 526.76,0 C526.76,0 526.76,-75.53 526.76,-75.53 C526.76,-75.53 373.69,-75.53 373.69,-75.53 C373.69,-75.53 373.69,-155.09 373.69,-155.09 C373.69,-155.09 499.07,-155.09 499.07,-155.09 C499.07,-155.09 499.07,-230.62 499.07,-230.62 C499.07,-230.62 373.69,-230.62 373.69,-230.62 C373.69,-230.62 373.69,-300.11 373.69,-300.11 C373.69,-300.11 521.23,-300.11 521.23,-300.11 C521.23,-300.11 521.23,-375.14 521.23,-375.14 C521.23,-375.14 283.55,-375.14 283.55,-375.14 C283.55,-375.14 283.55,0 283.55,0z "/><path id="_R_G_L_24_G_D_1_P_0" fill="#00125e" fill-opacity="1" fill-rule="nonzero" d=" M26.51 0 C26.51,0 134.77,0 134.77,0 C134.77,0 247.06,-375.14 247.06,-375.14 C247.06,-375.14 155.41,-375.14 155.41,-375.14 C155.41,-375.14 113.12,-203.93 113.12,-203.93 C102.54,-163.65 94.99,-125.38 83.91,-84.09 C83.91,-84.09 81.39,-84.09 81.39,-84.09 C70.82,-125.38 63.27,-163.65 52.19,-203.93 C52.19,-203.93 9.39,-375.14 9.39,-375.14 C9.39,-375.14 -85.78,-375.14 -85.78,-375.14 C-85.78,-375.14 26.51,0 26.51,0z "/><path id="_R_G_L_24_G_D_2_P_0" fill="#00125e" fill-opacity="1" fill-rule="nonzero" d=" M-212.95 0 C-212.95,0 -122.81,0 -122.81,0 C-122.81,0 -122.81,-375.14 -122.81,-375.14 C-122.81,-375.14 -212.95,-375.14 -212.95,-375.14 C-212.95,-375.14 -212.95,0 -212.95,0z "/><path id="_R_G_L_24_G_D_3_P_0" fill="#00125e" fill-opacity="1" fill-rule="nonzero" d=" M-511.95 0 C-511.95,0 -275.79,0 -275.79,0 C-275.79,0 -275.79,-75.53 -275.79,-75.53 C-275.79,-75.53 -421.81,-75.53 -421.81,-75.53 C-421.81,-75.53 -421.81,-375.14 -421.81,-375.14 C-421.81,-375.14 -511.95,-375.14 -511.95,-375.14 C-511.95,-375.14 -511.95,0 -511.95,0z "/></g></g><g id="_R_G_L_23_G_M"><g id="_R_G_L_23_G" transform=" translate(960, 540) translate(0, 0)"><path id="_R_G_L_23_G_D_0_P_0" fill="#ffffff" fill-opacity="1" fill-rule="nonzero" d=" M1019.84 -608 C1019.84,-608 1019.84,580.09 1019.84,580.09 C1019.84,580.09 -1028,580.09 -1028,580.09 C-1028,580.09 -1028,-608 -1028,-608 C-1028,-608 1019.84,-608 1019.84,-608z "/></g></g><g id="_R_G_L_22_G_M"><g id="_R_G_L_22_G" transform=" translate(960, 536) translate(-5.409, 187.569)"><path id="_R_G_L_22_G_D_0_P_0" fill="#00125e" fill-opacity="1" fill-rule="nonzero" d=" M283.55 0 C283.55,0 526.76,0 526.76,0 C526.76,0 526.76,-75.53 526.76,-75.53 C526.76,-75.53 373.69,-75.53 373.69,-75.53 C373.69,-75.53 373.69,-155.09 373.69,-155.09 C373.69,-155.09 499.07,-155.09 499.07,-155.09 C499.07,-155.09 499.07,-230.62 499.07,-230.62 C499.07,-230.62 373.69,-230.62 373.69,-230.62 C373.69,-230.62 373.69,-300.11 373.69,-300.11 C373.69,-300.11 521.23,-300.11 521.23,-300.11 C521.23,-300.11 521.23,-375.14 521.23,-375.14 C521.23,-375.14 283.55,-375.14 283.55,-375.14 C283.55,-375.14 283.55,0 283.55,0z "/><path id="_R_G_L_22_G_D_1_P_0" fill="#00125e" fill-opacity="1" fill-rule="nonzero" d=" M26.51 0 C26.51,0 134.77,0 134.77,0 C134.77,0 247.06,-375.14 247.06,-375.14 C247.06,-375.14 155.41,-375.14 155.41,-375.14 C155.41,-375.14 113.12,-203.93 113.12,-203.93 C102.54,-163.65 94.99,-125.38 83.91,-84.09 C83.91,-84.09 81.39,-84.09 81.39,-84.09 C70.82,-125.38 63.27,-163.65 52.19,-203.93 C52.19,-203.93 9.39,-375.14 9.39,-375.14 C9.39,-375.14 -85.78,-375.14 -85.78,-375.14 C-85.78,-375.14 26.51,0 26.51,0z "/><path id="_R_G_L_22_G_D_2_P_0" fill="#00125e" fill-opacity="1" fill-rule="nonzero" d=" M-212.95 0 C-212.95,0 -122.81,0 -122.81,0 C-122.81,0 -122.81,-375.14 -122.81,-375.14 C-122.81,-375.14 -212.95,-375.14 -212.95,-375.14 C-212.95,-375.14 -212.95,0 -212.95,0z "/><path id="_R_G_L_22_G_D_3_P_0" fill="#00125e" fill-opacity="1" fill-rule="nonzero" d=" M-511.95 0 C-511.95,0 -275.79,0 -275.79,0 C-275.79,0 -275.79,-75.53 -275.79,-75.53 C-275.79,-75.53 -421.81,-75.53 -421.81,-75.53 C-421.81,-75.53 -421.81,-375.14 -421.81,-375.14 C-421.81,-375.14 -511.95,-375.14 -511.95,-375.14 C-511.95,-375.14 -511.95,0 -511.95,0z "/></g></g><g id="_R_G_L_21_G_M"><g id="_R_G_L_21_G" transform=" translate(960, 540) translate(0, 0)"><path id="_R_G_L_21_G_D_0_P_0" fill="#ffffff" fill-opacity="1" fill-rule="nonzero" d=" M1019.84 -608 C1019.84,-608 1019.84,580.09 1019.84,580.09 C1019.84,580.09 -1028,580.09 -1028,580.09 C-1028,580.09 -1028,-608 -1028,-608 C-1028,-608 1019.84,-608 1019.84,-608z "/></g></g><g id="_R_G_L_20_G_M"><g id="_R_G_L_20_G" transform=" translate(960, 536) translate(-5.409, 187.569)"><path id="_R_G_L_20_G_D_0_P_0" fill="#00125e" fill-opacity="1" fill-rule="nonzero" d=" M283.55 0 C283.55,0 526.76,0 526.76,0 C526.76,0 526.76,-75.53 526.76,-75.53 C526.76,-75.53 373.69,-75.53 373.69,-75.53 C373.69,-75.53 373.69,-155.09 373.69,-155.09 C373.69,-155.09 499.07,-155.09 499.07,-155.09 C499.07,-155.09 499.07,-230.62 499.07,-230.62 C499.07,-230.62 373.69,-230.62 373.69,-230.62 C373.69,-230.62 373.69,-300.11 373.69,-300.11 C373.69,-300.11 521.23,-300.11 521.23,-300.11 C521.23,-300.11 521.23,-375.14 521.23,-375.14 C521.23,-375.14 283.55,-375.14 283.55,-375.14 C283.55,-375.14 283.55,0 283.55,0z "/><path id="_R_G_L_20_G_D_1_P_0" fill="#00125e" fill-opacity="1" fill-rule="nonzero" d=" M26.51 0 C26.51,0 134.77,0 134.77,0 C134.77,0 247.06,-375.14 247.06,-375.14 C247.06,-375.14 155.41,-375.14 155.41,-375.14 C155.41,-375.14 113.12,-203.93 113.12,-203.93 C102.54,-163.65 94.99,-125.38 83.91,-84.09 C83.91,-84.09 81.39,-84.09 81.39,-84.09 C70.82,-125.38 63.27,-163.65 52.19,-203.93 C52.19,-203.93 9.39,-375.14 9.39,-375.14 C9.39,-375.14 -85.78,-375.14 -85.78,-375.14 C-85.78,-375.14 26.51,0 26.51,0z "/><path id="_R_G_L_20_G_D_2_P_0" fill="#00125e" fill-opacity="1" fill-rule="nonzero" d=" M-212.95 0 C-212.95,0 -122.81,0 -122.81,0 C-122.81,0 -122.81,-375.14 -122.81,-375.14 C-122.81,-375.14 -212.95,-375.14 -212.95,-375.14 C-212.95,-375.14 -212.95,0 -212.95,0z "/><path id="_R_G_L_20_G_D_3_P_0" fill="#00125e" fill-opacity="1" fill-rule="nonzero" d=" M-511.95 0 C-511.95,0 -275.79,0 -275.79,0 C-275.79,0 -275.79,-75.53 -275.79,-75.53 C-275.79,-75.53 -421.81,-75.53 -421.81,-75.53 C-421.81,-75.53 -421.81,-375.14 -421.81,-375.14 C-421.81,-375.14 -511.95,-375.14 -511.95,-375.14 C-511.95,-375.14 -511.95,0 -511.95,0z "/></g></g><g id="_R_G_L_19_G_M"><g id="_R_G_L_19_G" transform=" translate(957.087, 689.479) translate(0, 0)"><path id="_R_G_L_19_G_D_0_P_0" fill="#00125e" fill-opacity="1" fill-rule="nonzero" d=" M474.66 0 C474.66,0 546.59,0 546.59,0 C546.59,0 546.59,-239.49 546.59,-239.49 C546.59,-239.49 627.76,-239.49 627.76,-239.49 C627.76,-239.49 627.76,-299.36 627.76,-299.36 C627.76,-299.36 393.9,-299.36 393.9,-299.36 C393.9,-299.36 393.9,-239.49 393.9,-239.49 C393.9,-239.49 474.66,-239.49 474.66,-239.49 C474.66,-239.49 474.66,0 474.66,0z "/><path id="_R_G_L_19_G_D_1_P_0" fill="#00125e" fill-opacity="1" fill-rule="nonzero" d=" M215.01 -161.93 C215.01,-161.93 215.01,-242.3 215.01,-242.3 C215.01,-242.3 247.16,-242.3 247.16,-242.3 C281.31,-242.3 299.8,-233.06 299.8,-204.93 C299.8,-176.8 281.31,-161.93 247.16,-161.93 C247.16,-161.93 215.01,-161.93 215.01,-161.93z  M143.09 0 C143.09,0 215.01,0 215.01,0 C215.01,0 215.01,-105.28 215.01,-105.28 C215.01,-105.28 249.57,-105.28 249.57,-105.28 C249.57,-105.28 304.62,0 304.62,0 C304.62,0 384.98,0 384.98,0 C384.98,0 318.28,-118.54 318.28,-118.54 C349.22,-133 369.71,-161.13 369.71,-204.93 C369.71,-277.26 316.67,-299.36 252.78,-299.36 C252.78,-299.36 143.09,-299.36 143.09,-299.36 C143.09,-299.36 143.09,0 143.09,0z "/><path id="_R_G_L_19_G_D_2_P_0" fill="#00125e" fill-opacity="1" fill-rule="nonzero" d=" M-158.03 0 C-158.03,0 -84.89,0 -84.89,0 C-84.89,0 -67.62,-68.71 -67.62,-68.71 C-67.62,-68.71 20.79,-68.71 20.79,-68.71 C20.79,-68.71 38.06,0 38.06,0 C38.06,0 113.61,0 113.61,0 C113.61,0 20.79,-299.36 20.79,-299.36 C20.79,-299.36 -65.2,-299.36 -65.2,-299.36 C-65.2,-299.36 -158.03,0 -158.03,0z  M-47.52 -149.48 C-39.89,-179.21 -31.85,-214.17 -24.62,-245.51 C-24.62,-245.51 -23.01,-245.51 -23.01,-245.51 C-14.98,-214.98 -7.34,-179.21 0.69,-149.48 C0.69,-149.48 7.12,-124.16 7.12,-124.16 C7.12,-124.16 -53.95,-124.16 -53.95,-124.16 C-53.95,-124.16 -47.52,-149.48 -47.52,-149.48z "/><path id="_R_G_L_19_G_D_3_P_0" fill="#00125e" fill-opacity="1" fill-rule="nonzero" d=" M-299.4 0 C-299.4,0 -227.47,0 -227.47,0 C-227.47,0 -227.47,-239.49 -227.47,-239.49 C-227.47,-239.49 -146.3,-239.49 -146.3,-239.49 C-146.3,-239.49 -146.3,-299.36 -146.3,-299.36 C-146.3,-299.36 -380.16,-299.36 -380.16,-299.36 C-380.16,-299.36 -380.16,-239.49 -380.16,-239.49 C-380.16,-239.49 -299.4,-239.49 -299.4,-239.49 C-299.4,-239.49 -299.4,0 -299.4,0z "/><path id="_R_G_L_19_G_D_4_P_0" fill="#00125e" fill-opacity="1" fill-rule="nonzero" d=" M-510.22 5.63 C-437.89,5.63 -396.1,-38.17 -396.1,-88 C-396.1,-130.19 -418.2,-155.1 -455.17,-169.97 C-455.17,-169.97 -492.54,-184.84 -492.54,-184.84 C-519.06,-195.29 -537.55,-201.72 -537.55,-218.59 C-537.55,-234.26 -524.29,-243.1 -502.19,-243.1 C-478.88,-243.1 -460.4,-235.07 -440.71,-220.2 C-440.71,-220.2 -404.94,-265.2 -404.94,-265.2 C-431.06,-291.32 -467.63,-304.58 -502.19,-304.58 C-565.67,-304.58 -610.68,-264.4 -610.68,-214.17 C-610.68,-170.78 -581.35,-144.66 -550,-132.2 C-550,-132.2 -511.83,-116.13 -511.83,-116.13 C-486.11,-105.28 -469.64,-99.65 -469.64,-82.37 C-469.64,-66.3 -482.1,-56.25 -508.62,-56.25 C-532.32,-56.25 -560.05,-68.71 -580.94,-86.79 C-580.94,-86.79 -621.93,-37.37 -621.93,-37.37 C-590.99,-8.84 -549.2,5.63 -510.22,5.63z "/></g></g><g id="_R_G_L_18_G_M"><g id="_R_G_L_18_G"><path id="_R_G_L_18_G_D_0_P_0" fill="#00125e" fill-opacity="1" fill-rule="nonzero" d=" M283.55 0 C283.55,0 526.76,0 526.76,0 C526.76,0 526.76,-75.53 526.76,-75.53 C526.76,-75.53 373.69,-75.53 373.69,-75.53 C373.69,-75.53 373.69,-155.09 373.69,-155.09 C373.69,-155.09 499.07,-155.09 499.07,-155.09 C499.07,-155.09 499.07,-230.62 499.07,-230.62 C499.07,-230.62 373.69,-230.62 373.69,-230.62 C373.69,-230.62 373.69,-300.11 373.69,-300.11 C373.69,-300.11 521.23,-300.11 521.23,-300.11 C521.23,-300.11 521.23,-375.14 521.23,-375.14 C521.23,-375.14 283.55,-375.14 283.55,-375.14 C283.55,-375.14 283.55,0 283.55,0z "/><path id="_R_G_L_18_G_D_1_P_0" fill="#00125e" fill-opacity="1" fill-rule="nonzero" d=" M26.51 0 C26.51,0 134.77,0 134.77,0 C134.77,0 247.06,-375.14 247.06,-375.14 C247.06,-375.14 155.41,-375.14 155.41,-375.14 C155.41,-375.14 113.12,-203.93 113.12,-203.93 C102.54,-163.65 94.99,-125.38 83.91,-84.09 C83.91,-84.09 81.39,-84.09 81.39,-84.09 C70.82,-125.38 63.27,-163.65 52.19,-203.93 C52.19,-203.93 9.39,-375.14 9.39,-375.14 C9.39,-375.14 -85.78,-375.14 -85.78,-375.14 C-85.78,-375.14 26.51,0 26.51,0z "/><path id="_R_G_L_18_G_D_2_P_0" fill="#00125e" fill-opacity="1" fill-rule="nonzero" d=" M-212.95 0 C-212.95,0 -122.81,0 -122.81,0 C-122.81,0 -122.81,-375.14 -122.81,-375.14 C-122.81,-375.14 -212.95,-375.14 -212.95,-375.14 C-212.95,-375.14 -212.95,0 -212.95,0z "/><path id="_R_G_L_18_G_D_3_P_0" fill="#00125e" fill-opacity="1" fill-rule="nonzero" d=" M-511.95 0 C-511.95,0 -275.79,0 -275.79,0 C-275.79,0 -275.79,-75.53 -275.79,-75.53 C-275.79,-75.53 -421.81,-75.53 -421.81,-75.53 C-421.81,-75.53 -421.81,-375.14 -421.81,-375.14 C-421.81,-375.14 -511.95,-375.14 -511.95,-375.14 C-511.95,-375.14 -511.95,0 -511.95,0z "/></g></g><g id="_R_G_L_17_G_M"><g id="_R_G_L_17_G"><path id="_R_G_L_17_G_D_0_P_0" fill="#00125e" fill-opacity="1" fill-rule="nonzero" d=" M283.55 0 C283.55,0 526.76,0 526.76,0 C526.76,0 526.76,-75.53 526.76,-75.53 C526.76,-75.53 373.69,-75.53 373.69,-75.53 C373.69,-75.53 373.69,-155.09 373.69,-155.09 C373.69,-155.09 499.07,-155.09 499.07,-155.09 C499.07,-155.09 499.07,-230.62 499.07,-230.62 C499.07,-230.62 373.69,-230.62 373.69,-230.62 C373.69,-230.62 373.69,-300.11 373.69,-300.11 C373.69,-300.11 521.23,-300.11 521.23,-300.11 C521.23,-300.11 521.23,-375.14 521.23,-375.14 C521.23,-375.14 283.55,-375.14 283.55,-375.14 C283.55,-375.14 283.55,0 283.55,0z "/><path id="_R_G_L_17_G_D_1_P_0" fill="#00125e" fill-opacity="1" fill-rule="nonzero" d=" M26.51 0 C26.51,0 134.77,0 134.77,0 C134.77,0 247.06,-375.14 247.06,-375.14 C247.06,-375.14 155.41,-375.14 155.41,-375.14 C155.41,-375.14 113.12,-203.93 113.12,-203.93 C102.54,-163.65 94.99,-125.38 83.91,-84.09 C83.91,-84.09 81.39,-84.09 81.39,-84.09 C70.82,-125.38 63.27,-163.65 52.19,-203.93 C52.19,-203.93 9.39,-375.14 9.39,-375.14 C9.39,-375.14 -85.78,-375.14 -85.78,-375.14 C-85.78,-375.14 26.51,0 26.51,0z "/><path id="_R_G_L_17_G_D_2_P_0" fill="#00125e" fill-opacity="1" fill-rule="nonzero" d=" M-212.95 0 C-212.95,0 -122.81,0 -122.81,0 C-122.81,0 -122.81,-375.14 -122.81,-375.14 C-122.81,-375.14 -212.95,-375.14 -212.95,-375.14 C-212.95,-375.14 -212.95,0 -212.95,0z "/><path id="_R_G_L_17_G_D_3_P_0" fill="#00125e" fill-opacity="1" fill-rule="nonzero" d=" M-511.95 0 C-511.95,0 -275.79,0 -275.79,0 C-275.79,0 -275.79,-75.53 -275.79,-75.53 C-275.79,-75.53 -421.81,-75.53 -421.81,-75.53 C-421.81,-75.53 -421.81,-375.14 -421.81,-375.14 C-421.81,-375.14 -511.95,-375.14 -511.95,-375.14 C-511.95,-375.14 -511.95,0 -511.95,0z "/></g></g><g id="_R_G_L_16_G_M"><g id="_R_G_L_16_G"><path id="_R_G_L_16_G_D_0_P_0" fill="#00125e" fill-opacity="1" fill-rule="nonzero" d=" M283.55 0 C283.55,0 526.76,0 526.76,0 C526.76,0 526.76,-75.53 526.76,-75.53 C526.76,-75.53 373.69,-75.53 373.69,-75.53 C373.69,-75.53 373.69,-155.09 373.69,-155.09 C373.69,-155.09 499.07,-155.09 499.07,-155.09 C499.07,-155.09 499.07,-230.62 499.07,-230.62 C499.07,-230.62 373.69,-230.62 373.69,-230.62 C373.69,-230.62 373.69,-300.11 373.69,-300.11 C373.69,-300.11 521.23,-300.11 521.23,-300.11 C521.23,-300.11 521.23,-375.14 521.23,-375.14 C521.23,-375.14 283.55,-375.14 283.55,-375.14 C283.55,-375.14 283.55,0 283.55,0z "/><path id="_R_G_L_16_G_D_1_P_0" fill="#00125e" fill-opacity="1" fill-rule="nonzero" d=" M26.51 0 C26.51,0 134.77,0 134.77,0 C134.77,0 247.06,-375.14 247.06,-375.14 C247.06,-375.14 155.41,-375.14 155.41,-375.14 C155.41,-375.14 113.12,-203.93 113.12,-203.93 C102.54,-163.65 94.99,-125.38 83.91,-84.09 C83.91,-84.09 81.39,-84.09 81.39,-84.09 C70.82,-125.38 63.27,-163.65 52.19,-203.93 C52.19,-203.93 9.39,-375.14 9.39,-375.14 C9.39,-375.14 -85.78,-375.14 -85.78,-375.14 C-85.78,-375.14 26.51,0 26.51,0z "/><path id="_R_G_L_16_G_D_2_P_0" fill="#00125e" fill-opacity="1" fill-rule="nonzero" d=" M-212.95 0 C-212.95,0 -122.81,0 -122.81,0 C-122.81,0 -122.81,-375.14 -122.81,-375.14 C-122.81,-375.14 -212.95,-375.14 -212.95,-375.14 C-212.95,-375.14 -212.95,0 -212.95,0z "/><path id="_R_G_L_16_G_D_3_P_0" fill="#00125e" fill-opacity="1" fill-rule="nonzero" d=" M-511.95 0 C-511.95,0 -275.79,0 -275.79,0 C-275.79,0 -275.79,-75.53 -275.79,-75.53 C-275.79,-75.53 -421.81,-75.53 -421.81,-75.53 C-421.81,-75.53 -421.81,-375.14 -421.81,-375.14 C-421.81,-375.14 -511.95,-375.14 -511.95,-375.14 C-511.95,-375.14 -511.95,0 -511.95,0z "/></g></g><g id="_R_G_L_15_G_M"><g id="_R_G_L_15_G"><path id="_R_G_L_15_G_D_0_P_0" fill="#00125e" fill-opacity="1" fill-rule="nonzero" d=" M283.55 0 C283.55,0 526.76,0 526.76,0 C526.76,0 526.76,-75.53 526.76,-75.53 C526.76,-75.53 373.69,-75.53 373.69,-75.53 C373.69,-75.53 373.69,-155.09 373.69,-155.09 C373.69,-155.09 499.07,-155.09 499.07,-155.09 C499.07,-155.09 499.07,-230.62 499.07,-230.62 C499.07,-230.62 373.69,-230.62 373.69,-230.62 C373.69,-230.62 373.69,-300.11 373.69,-300.11 C373.69,-300.11 521.23,-300.11 521.23,-300.11 C521.23,-300.11 521.23,-375.14 521.23,-375.14 C521.23,-375.14 283.55,-375.14 283.55,-375.14 C283.55,-375.14 283.55,0 283.55,0z "/><path id="_R_G_L_15_G_D_1_P_0" fill="#00125e" fill-opacity="1" fill-rule="nonzero" d=" M26.51 0 C26.51,0 134.77,0 134.77,0 C134.77,0 247.06,-375.14 247.06,-375.14 C247.06,-375.14 155.41,-375.14 155.41,-375.14 C155.41,-375.14 113.12,-203.93 113.12,-203.93 C102.54,-163.65 94.99,-125.38 83.91,-84.09 C83.91,-84.09 81.39,-84.09 81.39,-84.09 C70.82,-125.38 63.27,-163.65 52.19,-203.93 C52.19,-203.93 9.39,-375.14 9.39,-375.14 C9.39,-375.14 -85.78,-375.14 -85.78,-375.14 C-85.78,-375.14 26.51,0 26.51,0z "/><path id="_R_G_L_15_G_D_2_P_0" fill="#00125e" fill-opacity="1" fill-rule="nonzero" d=" M-212.95 0 C-212.95,0 -122.81,0 -122.81,0 C-122.81,0 -122.81,-375.14 -122.81,-375.14 C-122.81,-375.14 -212.95,-375.14 -212.95,-375.14 C-212.95,-375.14 -212.95,0 -212.95,0z "/><path id="_R_G_L_15_G_D_3_P_0" fill="#00125e" fill-opacity="1" fill-rule="nonzero" d=" M-511.95 0 C-511.95,0 -275.79,0 -275.79,0 C-275.79,0 -275.79,-75.53 -275.79,-75.53 C-275.79,-75.53 -421.81,-75.53 -421.81,-75.53 C-421.81,-75.53 -421.81,-375.14 -421.81,-375.14 C-421.81,-375.14 -511.95,-375.14 -511.95,-375.14 C-511.95,-375.14 -511.95,0 -511.95,0z "/></g></g><g id="_R_G_L_14_G_M"><g id="_R_G_L_14_G"><path id="_R_G_L_14_G_D_0_P_0" fill="#00125e" fill-opacity="1" fill-rule="nonzero" d=" M283.55 0 C283.55,0 526.76,0 526.76,0 C526.76,0 526.76,-75.53 526.76,-75.53 C526.76,-75.53 373.69,-75.53 373.69,-75.53 C373.69,-75.53 373.69,-155.09 373.69,-155.09 C373.69,-155.09 499.07,-155.09 499.07,-155.09 C499.07,-155.09 499.07,-230.62 499.07,-230.62 C499.07,-230.62 373.69,-230.62 373.69,-230.62 C373.69,-230.62 373.69,-300.11 373.69,-300.11 C373.69,-300.11 521.23,-300.11 521.23,-300.11 C521.23,-300.11 521.23,-375.14 521.23,-375.14 C521.23,-375.14 283.55,-375.14 283.55,-375.14 C283.55,-375.14 283.55,0 283.55,0z "/><path id="_R_G_L_14_G_D_1_P_0" fill="#00125e" fill-opacity="1" fill-rule="nonzero" d=" M26.51 0 C26.51,0 134.77,0 134.77,0 C134.77,0 247.06,-375.14 247.06,-375.14 C247.06,-375.14 155.41,-375.14 155.41,-375.14 C155.41,-375.14 113.12,-203.93 113.12,-203.93 C102.54,-163.65 94.99,-125.38 83.91,-84.09 C83.91,-84.09 81.39,-84.09 81.39,-84.09 C70.82,-125.38 63.27,-163.65 52.19,-203.93 C52.19,-203.93 9.39,-375.14 9.39,-375.14 C9.39,-375.14 -85.78,-375.14 -85.78,-375.14 C-85.78,-375.14 26.51,0 26.51,0z "/><path id="_R_G_L_14_G_D_2_P_0" fill="#00125e" fill-opacity="1" fill-rule="nonzero" d=" M-212.95 0 C-212.95,0 -122.81,0 -122.81,0 C-122.81,0 -122.81,-375.14 -122.81,-375.14 C-122.81,-375.14 -212.95,-375.14 -212.95,-375.14 C-212.95,-375.14 -212.95,0 -212.95,0z "/><path id="_R_G_L_14_G_D_3_P_0" fill="#00125e" fill-opacity="1" fill-rule="nonzero" d=" M-511.95 0 C-511.95,0 -275.79,0 -275.79,0 C-275.79,0 -275.79,-75.53 -275.79,-75.53 C-275.79,-75.53 -421.81,-75.53 -421.81,-75.53 C-421.81,-75.53 -421.81,-375.14 -421.81,-375.14 C-421.81,-375.14 -511.95,-375.14 -511.95,-375.14 C-511.95,-375.14 -511.95,0 -511.95,0z "/></g></g><g id="_R_G_L_13_G_M"><g id="_R_G_L_13_G"><path id="_R_G_L_13_G_D_0_P_0" fill="#00125e" fill-opacity="1" fill-rule="nonzero" d=" M283.55 0 C283.55,0 526.76,0 526.76,0 C526.76,0 526.76,-75.53 526.76,-75.53 C526.76,-75.53 373.69,-75.53 373.69,-75.53 C373.69,-75.53 373.69,-155.09 373.69,-155.09 C373.69,-155.09 499.07,-155.09 499.07,-155.09 C499.07,-155.09 499.07,-230.62 499.07,-230.62 C499.07,-230.62 373.69,-230.62 373.69,-230.62 C373.69,-230.62 373.69,-300.11 373.69,-300.11 C373.69,-300.11 521.23,-300.11 521.23,-300.11 C521.23,-300.11 521.23,-375.14 521.23,-375.14 C521.23,-375.14 283.55,-375.14 283.55,-375.14 C283.55,-375.14 283.55,0 283.55,0z "/><path id="_R_G_L_13_G_D_1_P_0" fill="#00125e" fill-opacity="1" fill-rule="nonzero" d=" M26.51 0 C26.51,0 134.77,0 134.77,0 C134.77,0 247.06,-375.14 247.06,-375.14 C247.06,-375.14 155.41,-375.14 155.41,-375.14 C155.41,-375.14 113.12,-203.93 113.12,-203.93 C102.54,-163.65 94.99,-125.38 83.91,-84.09 C83.91,-84.09 81.39,-84.09 81.39,-84.09 C70.82,-125.38 63.27,-163.65 52.19,-203.93 C52.19,-203.93 9.39,-375.14 9.39,-375.14 C9.39,-375.14 -85.78,-375.14 -85.78,-375.14 C-85.78,-375.14 26.51,0 26.51,0z "/><path id="_R_G_L_13_G_D_2_P_0" fill="#00125e" fill-opacity="1" fill-rule="nonzero" d=" M-212.95 0 C-212.95,0 -122.81,0 -122.81,0 C-122.81,0 -122.81,-375.14 -122.81,-375.14 C-122.81,-375.14 -212.95,-375.14 -212.95,-375.14 C-212.95,-375.14 -212.95,0 -212.95,0z "/><path id="_R_G_L_13_G_D_3_P_0" fill="#00125e" fill-opacity="1" fill-rule="nonzero" d=" M-511.95 0 C-511.95,0 -275.79,0 -275.79,0 C-275.79,0 -275.79,-75.53 -275.79,-75.53 C-275.79,-75.53 -421.81,-75.53 -421.81,-75.53 C-421.81,-75.53 -421.81,-375.14 -421.81,-375.14 C-421.81,-375.14 -511.95,-375.14 -511.95,-375.14 C-511.95,-375.14 -511.95,0 -511.95,0z "/></g></g><g id="_R_G_L_12_G_M"><g id="_R_G_L_12_G"><path id="_R_G_L_12_G_D_0_P_0" fill="#00125e" fill-opacity="1" fill-rule="nonzero" d=" M283.55 0 C283.55,0 526.76,0 526.76,0 C526.76,0 526.76,-75.53 526.76,-75.53 C526.76,-75.53 373.69,-75.53 373.69,-75.53 C373.69,-75.53 373.69,-155.09 373.69,-155.09 C373.69,-155.09 499.07,-155.09 499.07,-155.09 C499.07,-155.09 499.07,-230.62 499.07,-230.62 C499.07,-230.62 373.69,-230.62 373.69,-230.62 C373.69,-230.62 373.69,-300.11 373.69,-300.11 C373.69,-300.11 521.23,-300.11 521.23,-300.11 C521.23,-300.11 521.23,-375.14 521.23,-375.14 C521.23,-375.14 283.55,-375.14 283.55,-375.14 C283.55,-375.14 283.55,0 283.55,0z "/><path id="_R_G_L_12_G_D_1_P_0" fill="#00125e" fill-opacity="1" fill-rule="nonzero" d=" M26.51 0 C26.51,0 134.77,0 134.77,0 C134.77,0 247.06,-375.14 247.06,-375.14 C247.06,-375.14 155.41,-375.14 155.41,-375.14 C155.41,-375.14 113.12,-203.93 113.12,-203.93 C102.54,-163.65 94.99,-125.38 83.91,-84.09 C83.91,-84.09 81.39,-84.09 81.39,-84.09 C70.82,-125.38 63.27,-163.65 52.19,-203.93 C52.19,-203.93 9.39,-375.14 9.39,-375.14 C9.39,-375.14 -85.78,-375.14 -85.78,-375.14 C-85.78,-375.14 26.51,0 26.51,0z "/><path id="_R_G_L_12_G_D_2_P_0" fill="#00125e" fill-opacity="1" fill-rule="nonzero" d=" M-212.95 0 C-212.95,0 -122.81,0 -122.81,0 C-122.81,0 -122.81,-375.14 -122.81,-375.14 C-122.81,-375.14 -212.95,-375.14 -212.95,-375.14 C-212.95,-375.14 -212.95,0 -212.95,0z "/><path id="_R_G_L_12_G_D_3_P_0" fill="#00125e" fill-opacity="1" fill-rule="nonzero" d=" M-511.95 0 C-511.95,0 -275.79,0 -275.79,0 C-275.79,0 -275.79,-75.53 -275.79,-75.53 C-275.79,-75.53 -421.81,-75.53 -421.81,-75.53 C-421.81,-75.53 -421.81,-375.14 -421.81,-375.14 C-421.81,-375.14 -511.95,-375.14 -511.95,-375.14 C-511.95,-375.14 -511.95,0 -511.95,0z "/></g></g><g id="_R_G_L_11_G_M"><g id="_R_G_L_11_G"><path id="_R_G_L_11_G_D_0_P_0" fill="#00125e" fill-opacity="1" fill-rule="nonzero" d=" M283.55 0 C283.55,0 526.76,0 526.76,0 C526.76,0 526.76,-75.53 526.76,-75.53 C526.76,-75.53 373.69,-75.53 373.69,-75.53 C373.69,-75.53 373.69,-155.09 373.69,-155.09 C373.69,-155.09 499.07,-155.09 499.07,-155.09 C499.07,-155.09 499.07,-230.62 499.07,-230.62 C499.07,-230.62 373.69,-230.62 373.69,-230.62 C373.69,-230.62 373.69,-300.11 373.69,-300.11 C373.69,-300.11 521.23,-300.11 521.23,-300.11 C521.23,-300.11 521.23,-375.14 521.23,-375.14 C521.23,-375.14 283.55,-375.14 283.55,-375.14 C283.55,-375.14 283.55,0 283.55,0z "/><path id="_R_G_L_11_G_D_1_P_0" fill="#00125e" fill-opacity="1" fill-rule="nonzero" d=" M26.51 0 C26.51,0 134.77,0 134.77,0 C134.77,0 247.06,-375.14 247.06,-375.14 C247.06,-375.14 155.41,-375.14 155.41,-375.14 C155.41,-375.14 113.12,-203.93 113.12,-203.93 C102.54,-163.65 94.99,-125.38 83.91,-84.09 C83.91,-84.09 81.39,-84.09 81.39,-84.09 C70.82,-125.38 63.27,-163.65 52.19,-203.93 C52.19,-203.93 9.39,-375.14 9.39,-375.14 C9.39,-375.14 -85.78,-375.14 -85.78,-375.14 C-85.78,-375.14 26.51,0 26.51,0z "/><path id="_R_G_L_11_G_D_2_P_0" fill="#00125e" fill-opacity="1" fill-rule="nonzero" d=" M-212.95 0 C-212.95,0 -122.81,0 -122.81,0 C-122.81,0 -122.81,-375.14 -122.81,-375.14 C-122.81,-375.14 -212.95,-375.14 -212.95,-375.14 C-212.95,-375.14 -212.95,0 -212.95,0z "/><path id="_R_G_L_11_G_D_3_P_0" fill="#00125e" fill-opacity="1" fill-rule="nonzero" d=" M-511.95 0 C-511.95,0 -275.79,0 -275.79,0 C-275.79,0 -275.79,-75.53 -275.79,-75.53 C-275.79,-75.53 -421.81,-75.53 -421.81,-75.53 C-421.81,-75.53 -421.81,-375.14 -421.81,-375.14 C-421.81,-375.14 -511.95,-375.14 -511.95,-375.14 C-511.95,-375.14 -511.95,0 -511.95,0z "/></g></g><g id="_R_G_L_10_G_M"><g id="_R_G_L_10_G"><path id="_R_G_L_10_G_D_0_P_0" fill="#00125e" fill-opacity="1" fill-rule="nonzero" d=" M283.55 0 C283.55,0 526.76,0 526.76,0 C526.76,0 526.76,-75.53 526.76,-75.53 C526.76,-75.53 373.69,-75.53 373.69,-75.53 C373.69,-75.53 373.69,-155.09 373.69,-155.09 C373.69,-155.09 499.07,-155.09 499.07,-155.09 C499.07,-155.09 499.07,-230.62 499.07,-230.62 C499.07,-230.62 373.69,-230.62 373.69,-230.62 C373.69,-230.62 373.69,-300.11 373.69,-300.11 C373.69,-300.11 521.23,-300.11 521.23,-300.11 C521.23,-300.11 521.23,-375.14 521.23,-375.14 C521.23,-375.14 283.55,-375.14 283.55,-375.14 C283.55,-375.14 283.55,0 283.55,0z "/><path id="_R_G_L_10_G_D_1_P_0" fill="#00125e" fill-opacity="1" fill-rule="nonzero" d=" M26.51 0 C26.51,0 134.77,0 134.77,0 C134.77,0 247.06,-375.14 247.06,-375.14 C247.06,-375.14 155.41,-375.14 155.41,-375.14 C155.41,-375.14 113.12,-203.93 113.12,-203.93 C102.54,-163.65 94.99,-125.38 83.91,-84.09 C83.91,-84.09 81.39,-84.09 81.39,-84.09 C70.82,-125.38 63.27,-163.65 52.19,-203.93 C52.19,-203.93 9.39,-375.14 9.39,-375.14 C9.39,-375.14 -85.78,-375.14 -85.78,-375.14 C-85.78,-375.14 26.51,0 26.51,0z "/><path id="_R_G_L_10_G_D_2_P_0" fill="#00125e" fill-opacity="1" fill-rule="nonzero" d=" M-212.95 0 C-212.95,0 -122.81,0 -122.81,0 C-122.81,0 -122.81,-375.14 -122.81,-375.14 C-122.81,-375.14 -212.95,-375.14 -212.95,-375.14 C-212.95,-375.14 -212.95,0 -212.95,0z "/><path id="_R_G_L_10_G_D_3_P_0" fill="#00125e" fill-opacity="1" fill-rule="nonzero" d=" M-511.95 0 C-511.95,0 -275.79,0 -275.79,0 C-275.79,0 -275.79,-75.53 -275.79,-75.53 C-275.79,-75.53 -421.81,-75.53 -421.81,-75.53 C-421.81,-75.53 -421.81,-375.14 -421.81,-375.14 C-421.81,-375.14 -511.95,-375.14 -511.95,-375.14 C-511.95,-375.14 -511.95,0 -511.95,0z "/></g></g><g id="_R_G_L_9_G_M"><g id="_R_G_L_9_G" transform=" translate(2750, 408.337) scale(0.48819, 0.48819) translate(-5.409, 187.569)"><path id="_R_G_L_9_G_D_0_P_0" fill="#00125e" fill-opacity="1" fill-rule="nonzero" d=" M283.55 0 C283.55,0 526.76,0 526.76,0 C526.76,0 526.76,-75.53 526.76,-75.53 C526.76,-75.53 373.69,-75.53 373.69,-75.53 C373.69,-75.53 373.69,-155.09 373.69,-155.09 C373.69,-155.09 499.07,-155.09 499.07,-155.09 C499.07,-155.09 499.07,-230.62 499.07,-230.62 C499.07,-230.62 373.69,-230.62 373.69,-230.62 C373.69,-230.62 373.69,-300.11 373.69,-300.11 C373.69,-300.11 521.23,-300.11 521.23,-300.11 C521.23,-300.11 521.23,-375.14 521.23,-375.14 C521.23,-375.14 283.55,-375.14 283.55,-375.14 C283.55,-375.14 283.55,0 283.55,0z "/><path id="_R_G_L_9_G_D_1_P_0" fill="#00125e" fill-opacity="1" fill-rule="nonzero" d=" M26.51 0 C26.51,0 134.77,0 134.77,0 C134.77,0 247.06,-375.14 247.06,-375.14 C247.06,-375.14 155.41,-375.14 155.41,-375.14 C155.41,-375.14 113.12,-203.93 113.12,-203.93 C102.54,-163.65 94.99,-125.38 83.91,-84.09 C83.91,-84.09 81.39,-84.09 81.39,-84.09 C70.82,-125.38 63.27,-163.65 52.19,-203.93 C52.19,-203.93 9.39,-375.14 9.39,-375.14 C9.39,-375.14 -85.78,-375.14 -85.78,-375.14 C-85.78,-375.14 26.51,0 26.51,0z "/><path id="_R_G_L_9_G_D_2_P_0" fill="#00125e" fill-opacity="1" fill-rule="nonzero" d=" M-212.95 0 C-212.95,0 -122.81,0 -122.81,0 C-122.81,0 -122.81,-375.14 -122.81,-375.14 C-122.81,-375.14 -212.95,-375.14 -212.95,-375.14 C-212.95,-375.14 -212.95,0 -212.95,0z "/><path id="_R_G_L_9_G_D_3_P_0" fill="#00125e" fill-opacity="1" fill-rule="nonzero" d=" M-511.95 0 C-511.95,0 -275.79,0 -275.79,0 C-275.79,0 -275.79,-75.53 -275.79,-75.53 C-275.79,-75.53 -421.81,-75.53 -421.81,-75.53 C-421.81,-75.53 -421.81,-375.14 -421.81,-375.14 C-421.81,-375.14 -511.95,-375.14 -511.95,-375.14 C-511.95,-375.14 -511.95,0 -511.95,0z "/></g></g><g id="_R_G_L_8_G_M"><g id="_R_G_L_8_G"><path id="_R_G_L_8_G_D_0_P_0" fill="#00125e" fill-opacity="1" fill-rule="nonzero" d=" M283.55 0 C283.55,0 526.76,0 526.76,0 C526.76,0 526.76,-75.53 526.76,-75.53 C526.76,-75.53 373.69,-75.53 373.69,-75.53 C373.69,-75.53 373.69,-155.09 373.69,-155.09 C373.69,-155.09 499.07,-155.09 499.07,-155.09 C499.07,-155.09 499.07,-230.62 499.07,-230.62 C499.07,-230.62 373.69,-230.62 373.69,-230.62 C373.69,-230.62 373.69,-300.11 373.69,-300.11 C373.69,-300.11 521.23,-300.11 521.23,-300.11 C521.23,-300.11 521.23,-375.14 521.23,-375.14 C521.23,-375.14 283.55,-375.14 283.55,-375.14 C283.55,-375.14 283.55,0 283.55,0z "/><path id="_R_G_L_8_G_D_1_P_0" fill="#00125e" fill-opacity="1" fill-rule="nonzero" d=" M26.51 0 C26.51,0 134.77,0 134.77,0 C134.77,0 247.06,-375.14 247.06,-375.14 C247.06,-375.14 155.41,-375.14 155.41,-375.14 C155.41,-375.14 113.12,-203.93 113.12,-203.93 C102.54,-163.65 94.99,-125.38 83.91,-84.09 C83.91,-84.09 81.39,-84.09 81.39,-84.09 C70.82,-125.38 63.27,-163.65 52.19,-203.93 C52.19,-203.93 9.39,-375.14 9.39,-375.14 C9.39,-375.14 -85.78,-375.14 -85.78,-375.14 C-85.78,-375.14 26.51,0 26.51,0z "/><path id="_R_G_L_8_G_D_2_P_0" fill="#00125e" fill-opacity="1" fill-rule="nonzero" d=" M-212.95 0 C-212.95,0 -122.81,0 -122.81,0 C-122.81,0 -122.81,-375.14 -122.81,-375.14 C-122.81,-375.14 -212.95,-375.14 -212.95,-375.14 C-212.95,-375.14 -212.95,0 -212.95,0z "/><path id="_R_G_L_8_G_D_3_P_0" fill="#00125e" fill-opacity="1" fill-rule="nonzero" d=" M-511.95 0 C-511.95,0 -275.79,0 -275.79,0 C-275.79,0 -275.79,-75.53 -275.79,-75.53 C-275.79,-75.53 -421.81,-75.53 -421.81,-75.53 C-421.81,-75.53 -421.81,-375.14 -421.81,-375.14 C-421.81,-375.14 -511.95,-375.14 -511.95,-375.14 C-511.95,-375.14 -511.95,0 -511.95,0z "/></g></g><g id="_R_G_L_7_G_M"><g id="_R_G_L_7_G"><path id="_R_G_L_7_G_D_0_P_0" fill="#00125e" fill-opacity="1" fill-rule="nonzero" d=" M283.55 0 C283.55,0 526.76,0 526.76,0 C526.76,0 526.76,-75.53 526.76,-75.53 C526.76,-75.53 373.69,-75.53 373.69,-75.53 C373.69,-75.53 373.69,-155.09 373.69,-155.09 C373.69,-155.09 499.07,-155.09 499.07,-155.09 C499.07,-155.09 499.07,-230.62 499.07,-230.62 C499.07,-230.62 373.69,-230.62 373.69,-230.62 C373.69,-230.62 373.69,-300.11 373.69,-300.11 C373.69,-300.11 521.23,-300.11 521.23,-300.11 C521.23,-300.11 521.23,-375.14 521.23,-375.14 C521.23,-375.14 283.55,-375.14 283.55,-375.14 C283.55,-375.14 283.55,0 283.55,0z "/><path id="_R_G_L_7_G_D_1_P_0" fill="#00125e" fill-opacity="1" fill-rule="nonzero" d=" M26.51 0 C26.51,0 134.77,0 134.77,0 C134.77,0 247.06,-375.14 247.06,-375.14 C247.06,-375.14 155.41,-375.14 155.41,-375.14 C155.41,-375.14 113.12,-203.93 113.12,-203.93 C102.54,-163.65 94.99,-125.38 83.91,-84.09 C83.91,-84.09 81.39,-84.09 81.39,-84.09 C70.82,-125.38 63.27,-163.65 52.19,-203.93 C52.19,-203.93 9.39,-375.14 9.39,-375.14 C9.39,-375.14 -85.78,-375.14 -85.78,-375.14 C-85.78,-375.14 26.51,0 26.51,0z "/><path id="_R_G_L_7_G_D_2_P_0" fill="#00125e" fill-opacity="1" fill-rule="nonzero" d=" M-212.95 0 C-212.95,0 -122.81,0 -122.81,0 C-122.81,0 -122.81,-375.14 -122.81,-375.14 C-122.81,-375.14 -212.95,-375.14 -212.95,-375.14 C-212.95,-375.14 -212.95,0 -212.95,0z "/><path id="_R_G_L_7_G_D_3_P_0" fill="#00125e" fill-opacity="1" fill-rule="nonzero" d=" M-511.95 0 C-511.95,0 -275.79,0 -275.79,0 C-275.79,0 -275.79,-75.53 -275.79,-75.53 C-275.79,-75.53 -421.81,-75.53 -421.81,-75.53 C-421.81,-75.53 -421.81,-375.14 -421.81,-375.14 C-421.81,-375.14 -511.95,-375.14 -511.95,-375.14 C-511.95,-375.14 -511.95,0 -511.95,0z "/></g></g><g id="_R_G_L_6_G_M"><g id="_R_G_L_6_G"><path id="_R_G_L_6_G_D_0_P_0" fill="#00125e" fill-opacity="1" fill-rule="nonzero" d=" M283.55 0 C283.55,0 526.76,0 526.76,0 C526.76,0 526.76,-75.53 526.76,-75.53 C526.76,-75.53 373.69,-75.53 373.69,-75.53 C373.69,-75.53 373.69,-155.09 373.69,-155.09 C373.69,-155.09 499.07,-155.09 499.07,-155.09 C499.07,-155.09 499.07,-230.62 499.07,-230.62 C499.07,-230.62 373.69,-230.62 373.69,-230.62 C373.69,-230.62 373.69,-300.11 373.69,-300.11 C373.69,-300.11 521.23,-300.11 521.23,-300.11 C521.23,-300.11 521.23,-375.14 521.23,-375.14 C521.23,-375.14 283.55,-375.14 283.55,-375.14 C283.55,-375.14 283.55,0 283.55,0z "/><path id="_R_G_L_6_G_D_1_P_0" fill="#00125e" fill-opacity="1" fill-rule="nonzero" d=" M26.51 0 C26.51,0 134.77,0 134.77,0 C134.77,0 247.06,-375.14 247.06,-375.14 C247.06,-375.14 155.41,-375.14 155.41,-375.14 C155.41,-375.14 113.12,-203.93 113.12,-203.93 C102.54,-163.65 94.99,-125.38 83.91,-84.09 C83.91,-84.09 81.39,-84.09 81.39,-84.09 C70.82,-125.38 63.27,-163.65 52.19,-203.93 C52.19,-203.93 9.39,-375.14 9.39,-375.14 C9.39,-375.14 -85.78,-375.14 -85.78,-375.14 C-85.78,-375.14 26.51,0 26.51,0z "/><path id="_R_G_L_6_G_D_2_P_0" fill="#00125e" fill-opacity="1" fill-rule="nonzero" d=" M-212.95 0 C-212.95,0 -122.81,0 -122.81,0 C-122.81,0 -122.81,-375.14 -122.81,-375.14 C-122.81,-375.14 -212.95,-375.14 -212.95,-375.14 C-212.95,-375.14 -212.95,0 -212.95,0z "/><path id="_R_G_L_6_G_D_3_P_0" fill="#00125e" fill-opacity="1" fill-rule="nonzero" d=" M-511.95 0 C-511.95,0 -275.79,0 -275.79,0 C-275.79,0 -275.79,-75.53 -275.79,-75.53 C-275.79,-75.53 -421.81,-75.53 -421.81,-75.53 C-421.81,-75.53 -421.81,-375.14 -421.81,-375.14 C-421.81,-375.14 -511.95,-375.14 -511.95,-375.14 C-511.95,-375.14 -511.95,0 -511.95,0z "/></g></g><g id="_R_G_L_5_G_M"><g id="_R_G_L_5_G"><path id="_R_G_L_5_G_D_0_P_0" fill="#00125e" fill-opacity="1" fill-rule="nonzero" d=" M283.55 0 C283.55,0 526.76,0 526.76,0 C526.76,0 526.76,-75.53 526.76,-75.53 C526.76,-75.53 373.69,-75.53 373.69,-75.53 C373.69,-75.53 373.69,-155.09 373.69,-155.09 C373.69,-155.09 499.07,-155.09 499.07,-155.09 C499.07,-155.09 499.07,-230.62 499.07,-230.62 C499.07,-230.62 373.69,-230.62 373.69,-230.62 C373.69,-230.62 373.69,-300.11 373.69,-300.11 C373.69,-300.11 521.23,-300.11 521.23,-300.11 C521.23,-300.11 521.23,-375.14 521.23,-375.14 C521.23,-375.14 283.55,-375.14 283.55,-375.14 C283.55,-375.14 283.55,0 283.55,0z "/><path id="_R_G_L_5_G_D_1_P_0" fill="#00125e" fill-opacity="1" fill-rule="nonzero" d=" M26.51 0 C26.51,0 134.77,0 134.77,0 C134.77,0 247.06,-375.14 247.06,-375.14 C247.06,-375.14 155.41,-375.14 155.41,-375.14 C155.41,-375.14 113.12,-203.93 113.12,-203.93 C102.54,-163.65 94.99,-125.38 83.91,-84.09 C83.91,-84.09 81.39,-84.09 81.39,-84.09 C70.82,-125.38 63.27,-163.65 52.19,-203.93 C52.19,-203.93 9.39,-375.14 9.39,-375.14 C9.39,-375.14 -85.78,-375.14 -85.78,-375.14 C-85.78,-375.14 26.51,0 26.51,0z "/><path id="_R_G_L_5_G_D_2_P_0" fill="#00125e" fill-opacity="1" fill-rule="nonzero" d=" M-212.95 0 C-212.95,0 -122.81,0 -122.81,0 C-122.81,0 -122.81,-375.14 -122.81,-375.14 C-122.81,-375.14 -212.95,-375.14 -212.95,-375.14 C-212.95,-375.14 -212.95,0 -212.95,0z "/><path id="_R_G_L_5_G_D_3_P_0" fill="#00125e" fill-opacity="1" fill-rule="nonzero" d=" M-511.95 0 C-511.95,0 -275.79,0 -275.79,0 C-275.79,0 -275.79,-75.53 -275.79,-75.53 C-275.79,-75.53 -421.81,-75.53 -421.81,-75.53 C-421.81,-75.53 -421.81,-375.14 -421.81,-375.14 C-421.81,-375.14 -511.95,-375.14 -511.95,-375.14 C-511.95,-375.14 -511.95,0 -511.95,0z "/></g></g><g id="_R_G_L_4_G_M"><g id="_R_G_L_4_G"><path id="_R_G_L_4_G_D_0_P_0" fill="#00125e" fill-opacity="1" fill-rule="nonzero" d=" M283.55 0 C283.55,0 526.76,0 526.76,0 C526.76,0 526.76,-75.53 526.76,-75.53 C526.76,-75.53 373.69,-75.53 373.69,-75.53 C373.69,-75.53 373.69,-155.09 373.69,-155.09 C373.69,-155.09 499.07,-155.09 499.07,-155.09 C499.07,-155.09 499.07,-230.62 499.07,-230.62 C499.07,-230.62 373.69,-230.62 373.69,-230.62 C373.69,-230.62 373.69,-300.11 373.69,-300.11 C373.69,-300.11 521.23,-300.11 521.23,-300.11 C521.23,-300.11 521.23,-375.14 521.23,-375.14 C521.23,-375.14 283.55,-375.14 283.55,-375.14 C283.55,-375.14 283.55,0 283.55,0z "/><path id="_R_G_L_4_G_D_1_P_0" fill="#00125e" fill-opacity="1" fill-rule="nonzero" d=" M26.51 0 C26.51,0 134.77,0 134.77,0 C134.77,0 247.06,-375.14 247.06,-375.14 C247.06,-375.14 155.41,-375.14 155.41,-375.14 C155.41,-375.14 113.12,-203.93 113.12,-203.93 C102.54,-163.65 94.99,-125.38 83.91,-84.09 C83.91,-84.09 81.39,-84.09 81.39,-84.09 C70.82,-125.38 63.27,-163.65 52.19,-203.93 C52.19,-203.93 9.39,-375.14 9.39,-375.14 C9.39,-375.14 -85.78,-375.14 -85.78,-375.14 C-85.78,-375.14 26.51,0 26.51,0z "/><path id="_R_G_L_4_G_D_2_P_0" fill="#00125e" fill-opacity="1" fill-rule="nonzero" d=" M-212.95 0 C-212.95,0 -122.81,0 -122.81,0 C-122.81,0 -122.81,-375.14 -122.81,-375.14 C-122.81,-375.14 -212.95,-375.14 -212.95,-375.14 C-212.95,-375.14 -212.95,0 -212.95,0z "/><path id="_R_G_L_4_G_D_3_P_0" fill="#00125e" fill-opacity="1" fill-rule="nonzero" d=" M-511.95 0 C-511.95,0 -275.79,0 -275.79,0 C-275.79,0 -275.79,-75.53 -275.79,-75.53 C-275.79,-75.53 -421.81,-75.53 -421.81,-75.53 C-421.81,-75.53 -421.81,-375.14 -421.81,-375.14 C-421.81,-375.14 -511.95,-375.14 -511.95,-375.14 C-511.95,-375.14 -511.95,0 -511.95,0z "/></g></g><g id="_R_G_L_3_G_M"><g id="_R_G_L_3_G"><path id="_R_G_L_3_G_D_0_P_0" fill="#00125e" fill-opacity="1" fill-rule="nonzero" d=" M283.55 0 C283.55,0 526.76,0 526.76,0 C526.76,0 526.76,-75.53 526.76,-75.53 C526.76,-75.53 373.69,-75.53 373.69,-75.53 C373.69,-75.53 373.69,-155.09 373.69,-155.09 C373.69,-155.09 499.07,-155.09 499.07,-155.09 C499.07,-155.09 499.07,-230.62 499.07,-230.62 C499.07,-230.62 373.69,-230.62 373.69,-230.62 C373.69,-230.62 373.69,-300.11 373.69,-300.11 C373.69,-300.11 521.23,-300.11 521.23,-300.11 C521.23,-300.11 521.23,-375.14 521.23,-375.14 C521.23,-375.14 283.55,-375.14 283.55,-375.14 C283.55,-375.14 283.55,0 283.55,0z "/><path id="_R_G_L_3_G_D_1_P_0" fill="#00125e" fill-opacity="1" fill-rule="nonzero" d=" M26.51 0 C26.51,0 134.77,0 134.77,0 C134.77,0 247.06,-375.14 247.06,-375.14 C247.06,-375.14 155.41,-375.14 155.41,-375.14 C155.41,-375.14 113.12,-203.93 113.12,-203.93 C102.54,-163.65 94.99,-125.38 83.91,-84.09 C83.91,-84.09 81.39,-84.09 81.39,-84.09 C70.82,-125.38 63.27,-163.65 52.19,-203.93 C52.19,-203.93 9.39,-375.14 9.39,-375.14 C9.39,-375.14 -85.78,-375.14 -85.78,-375.14 C-85.78,-375.14 26.51,0 26.51,0z "/><path id="_R_G_L_3_G_D_2_P_0" fill="#00125e" fill-opacity="1" fill-rule="nonzero" d=" M-212.95 0 C-212.95,0 -122.81,0 -122.81,0 C-122.81,0 -122.81,-375.14 -122.81,-375.14 C-122.81,-375.14 -212.95,-375.14 -212.95,-375.14 C-212.95,-375.14 -212.95,0 -212.95,0z "/><path id="_R_G_L_3_G_D_3_P_0" fill="#00125e" fill-opacity="1" fill-rule="nonzero" d=" M-511.95 0 C-511.95,0 -275.79,0 -275.79,0 C-275.79,0 -275.79,-75.53 -275.79,-75.53 C-275.79,-75.53 -421.81,-75.53 -421.81,-75.53 C-421.81,-75.53 -421.81,-375.14 -421.81,-375.14 C-421.81,-375.14 -511.95,-375.14 -511.95,-375.14 C-511.95,-375.14 -511.95,0 -511.95,0z "/></g></g><g id="_R_G_L_2_G_M"><g id="_R_G_L_2_G"><path id="_R_G_L_2_G_D_0_P_0" fill="#00125e" fill-opacity="1" fill-rule="nonzero" d=" M283.55 0 C283.55,0 526.76,0 526.76,0 C526.76,0 526.76,-75.53 526.76,-75.53 C526.76,-75.53 373.69,-75.53 373.69,-75.53 C373.69,-75.53 373.69,-155.09 373.69,-155.09 C373.69,-155.09 499.07,-155.09 499.07,-155.09 C499.07,-155.09 499.07,-230.62 499.07,-230.62 C499.07,-230.62 373.69,-230.62 373.69,-230.62 C373.69,-230.62 373.69,-300.11 373.69,-300.11 C373.69,-300.11 521.23,-300.11 521.23,-300.11 C521.23,-300.11 521.23,-375.14 521.23,-375.14 C521.23,-375.14 283.55,-375.14 283.55,-375.14 C283.55,-375.14 283.55,0 283.55,0z "/><path id="_R_G_L_2_G_D_1_P_0" fill="#00125e" fill-opacity="1" fill-rule="nonzero" d=" M26.51 0 C26.51,0 134.77,0 134.77,0 C134.77,0 247.06,-375.14 247.06,-375.14 C247.06,-375.14 155.41,-375.14 155.41,-375.14 C155.41,-375.14 113.12,-203.93 113.12,-203.93 C102.54,-163.65 94.99,-125.38 83.91,-84.09 C83.91,-84.09 81.39,-84.09 81.39,-84.09 C70.82,-125.38 63.27,-163.65 52.19,-203.93 C52.19,-203.93 9.39,-375.14 9.39,-375.14 C9.39,-375.14 -85.78,-375.14 -85.78,-375.14 C-85.78,-375.14 26.51,0 26.51,0z "/><path id="_R_G_L_2_G_D_2_P_0" fill="#00125e" fill-opacity="1" fill-rule="nonzero" d=" M-212.95 0 C-212.95,0 -122.81,0 -122.81,0 C-122.81,0 -122.81,-375.14 -122.81,-375.14 C-122.81,-375.14 -212.95,-375.14 -212.95,-375.14 C-212.95,-375.14 -212.95,0 -212.95,0z "/><path id="_R_G_L_2_G_D_3_P_0" fill="#00125e" fill-opacity="1" fill-rule="nonzero" d=" M-511.95 0 C-511.95,0 -275.79,0 -275.79,0 C-275.79,0 -275.79,-75.53 -275.79,-75.53 C-275.79,-75.53 -421.81,-75.53 -421.81,-75.53 C-421.81,-75.53 -421.81,-375.14 -421.81,-375.14 C-421.81,-375.14 -511.95,-375.14 -511.95,-375.14 C-511.95,-375.14 -511.95,0 -511.95,0z "/></g></g><g id="_R_G_L_1_G_M"><g id="_R_G_L_1_G"><path id="_R_G_L_1_G_D_0_P_0" fill="#00125e" fill-opacity="1" fill-rule="nonzero" d=" M283.55 0 C283.55,0 526.76,0 526.76,0 C526.76,0 526.76,-75.53 526.76,-75.53 C526.76,-75.53 373.69,-75.53 373.69,-75.53 C373.69,-75.53 373.69,-155.09 373.69,-155.09 C373.69,-155.09 499.07,-155.09 499.07,-155.09 C499.07,-155.09 499.07,-230.62 499.07,-230.62 C499.07,-230.62 373.69,-230.62 373.69,-230.62 C373.69,-230.62 373.69,-300.11 373.69,-300.11 C373.69,-300.11 521.23,-300.11 521.23,-300.11 C521.23,-300.11 521.23,-375.14 521.23,-375.14 C521.23,-375.14 283.55,-375.14 283.55,-375.14 C283.55,-375.14 283.55,0 283.55,0z "/><path id="_R_G_L_1_G_D_1_P_0" fill="#00125e" fill-opacity="1" fill-rule="nonzero" d=" M26.51 0 C26.51,0 134.77,0 134.77,0 C134.77,0 247.06,-375.14 247.06,-375.14 C247.06,-375.14 155.41,-375.14 155.41,-375.14 C155.41,-375.14 113.12,-203.93 113.12,-203.93 C102.54,-163.65 94.99,-125.38 83.91,-84.09 C83.91,-84.09 81.39,-84.09 81.39,-84.09 C70.82,-125.38 63.27,-163.65 52.19,-203.93 C52.19,-203.93 9.39,-375.14 9.39,-375.14 C9.39,-375.14 -85.78,-375.14 -85.78,-375.14 C-85.78,-375.14 26.51,0 26.51,0z "/><path id="_R_G_L_1_G_D_2_P_0" fill="#00125e" fill-opacity="1" fill-rule="nonzero" d=" M-212.95 0 C-212.95,0 -122.81,0 -122.81,0 C-122.81,0 -122.81,-375.14 -122.81,-375.14 C-122.81,-375.14 -212.95,-375.14 -212.95,-375.14 C-212.95,-375.14 -212.95,0 -212.95,0z "/><path id="_R_G_L_1_G_D_3_P_0" fill="#00125e" fill-opacity="1" fill-rule="nonzero" d=" M-511.95 0 C-511.95,0 -275.79,0 -275.79,0 C-275.79,0 -275.79,-75.53 -275.79,-75.53 C-275.79,-75.53 -421.81,-75.53 -421.81,-75.53 C-421.81,-75.53 -421.81,-375.14 -421.81,-375.14 C-421.81,-375.14 -511.95,-375.14 -511.95,-375.14 C-511.95,-375.14 -511.95,0 -511.95,0z "/></g></g><g id="_R_G_L_0_G_M"><g id="_R_G_L_0_G"><path id="_R_G_L_0_G_D_0_P_0" fill="#00125e" fill-opacity="1" fill-rule="nonzero" d=" M283.55 0 C283.55,0 526.76,0 526.76,0 C526.76,0 526.76,-75.53 526.76,-75.53 C526.76,-75.53 373.69,-75.53 373.69,-75.53 C373.69,-75.53 373.69,-155.09 373.69,-155.09 C373.69,-155.09 499.07,-155.09 499.07,-155.09 C499.07,-155.09 499.07,-230.62 499.07,-230.62 C499.07,-230.62 373.69,-230.62 373.69,-230.62 C373.69,-230.62 373.69,-300.11 373.69,-300.11 C373.69,-300.11 521.23,-300.11 521.23,-300.11 C521.23,-300.11 521.23,-375.14 521.23,-375.14 C521.23,-375.14 283.55,-375.14 283.55,-375.14 C283.55,-375.14 283.55,0 283.55,0z "/><path id="_R_G_L_0_G_D_1_P_0" fill="#00125e" fill-opacity="1" fill-rule="nonzero" d=" M26.51 0 C26.51,0 134.77,0 134.77,0 C134.77,0 247.06,-375.14 247.06,-375.14 C247.06,-375.14 155.41,-375.14 155.41,-375.14 C155.41,-375.14 113.12,-203.93 113.12,-203.93 C102.54,-163.65 94.99,-125.38 83.91,-84.09 C83.91,-84.09 81.39,-84.09 81.39,-84.09 C70.82,-125.38 63.27,-163.65 52.19,-203.93 C52.19,-203.93 9.39,-375.14 9.39,-375.14 C9.39,-375.14 -85.78,-375.14 -85.78,-375.14 C-85.78,-375.14 26.51,0 26.51,0z "/><path id="_R_G_L_0_G_D_2_P_0" fill="#00125e" fill-opacity="1" fill-rule="nonzero" d=" M-212.95 0 C-212.95,0 -122.81,0 -122.81,0 C-122.81,0 -122.81,-375.14 -122.81,-375.14 C-122.81,-375.14 -212.95,-375.14 -212.95,-375.14 C-212.95,-375.14 -212.95,0 -212.95,0z "/><path id="_R_G_L_0_G_D_3_P_0" fill="#00125e" fill-opacity="1" fill-rule="nonzero" d=" M-511.95 0 C-511.95,0 -275.79,0 -275.79,0 C-275.79,0 -275.79,-75.53 -275.79,-75.53 C-275.79,-75.53 -421.81,-75.53 -421.81,-75.53 C-421.81,-75.53 -421.81,-375.14 -421.81,-375.14 C-421.81,-375.14 -511.95,-375.14 -511.95,-375.14 C-511.95,-375.14 -511.95,0 -511.95,0z "/></g></g></g><g id="time_group"/></svg>